<?xml version="1.0" encoding="utf-8"?>
<!-- Generator: Adobe Illustrator 24.1.1, SVG Export Plug-In . SVG Version: 6.00 Build 0)  -->
<svg version="1.1" id="Capa_1" xmlns="http://www.w3.org/2000/svg" xmlns:xlink="http://www.w3.org/1999/xlink" x="0px" y="0px"
	 viewBox="0 0 229 228" style="enable-background:new 0 0 229 228;" xml:space="preserve">
<style type="text/css">
	.st0{fill:#FFFFFF;}
	.st1{fill:#27B2AC;}
</style>
<circle class="st0" cx="114.9" cy="114.8" r="112.6"/>
<circle class="st0" cx="114.3" cy="114.6" r="112.6"/>
<g>
	<path class="st1" d="M152,77.6c9.1-4.7,9.1-4.7,7.8-14.9c-0.3-2.7-0.4-5.4-0.7-9.2c7.9,1.7,15.3,2.6,22.3,4.9
		c5,1.6,7.1,6.5,7.1,11.7c0.1,31.4,0.1,62.9,0,94.3c0,6.2-1.2,6.5-15.1,6.5c-4.8,0-8.4-0.6-8.4-6.8c0.1-18.6,0.1-37.3,0-55.9
		c0-1.7,0.2-3.6-0.5-5.1c-0.5-1.2-2.3-2.6-3.3-2.5c-1.4,0.2-3.1,1.5-3.7,2.8c-0.7,1.5-0.3,3.4-0.3,5.2c0,18.2-0.1,36.5,0.1,54.7
		c0.1,5.5-2.1,7.9-7.6,7.6c-3.9-0.2-7.8,0-11.6-0.1c-10.1-0.2-17.7-6.3-18.3-16.5c-0.8-14.1-0.5-28.3-0.3-42.5
		c0-1.5,2.1-3.5,3.7-4.4c8.4-4.8,16.9-9.4,25.4-14.1c8.3-4.6,8.5-4.9,4.5-13.4C152.6,79.3,152.4,78.6,152,77.6z"/>
	<path class="st1" d="M68.8,53.8c-0.3,3.7-0.4,6.6-0.8,9.4c-1.3,9.9-1.3,9.9,7.4,14.1c0.1,0.3,0.3,0.8,0.2,1.1
		c-4.5,9.8-6,9.9,5.7,16.2c8,4.3,16.1,8.6,23.9,13.2c1.7,1,3.4,3.8,3.4,5.7c0.3,12.4,0.3,24.8,0.1,37.3
		c-0.3,13.3-7.5,20.1-20.9,20.1c-19.1,0.1-16.9,1.2-16.9-16.8c0-15.3,0-30.7,0-46c0-1.5,0.3-3.3-0.3-4.6c-0.7-1.3-2.4-2.9-3.6-2.9
		c-1.2,0-2.9,1.6-3.6,2.9c-0.6,1.2-0.3,3-0.3,4.6c0,18,0,36.1,0,54.1c0,7.5-1,8.6-8.2,8.6c-16.1,0.1-15.3,1-15.3-15
		c0.1-27.6,0-55.1,0-82.7c0-11,3.4-15,14.2-16.8C58.4,55.5,63.1,54.7,68.8,53.8z"/>
	<path class="st1" d="M134.6,64.4c-13.9,0-27.4,0-41.5,0c4.4,10.1,9,20.5,14.4,32.7c-8.5-4.7-15.7-8.6-22.7-12.4
		c3.8-13.3,3.8-13.3-6.8-18.7c0.3-3,0.9-6,0.8-9.1c-0.1-5.1,2.5-6.6,6.9-5.4c18.6,4.8,37.2,4.9,55.8,0.1c4.8-1.2,7.4,0.3,7.2,5.7
		c-0.1,2.9,0.5,5.8,0.8,8.6c-10.9,6.4-10.9,6.4-6.6,18.7c-7,3.9-14,7.8-21.1,11.7c-0.3-0.2-0.7-0.4-1-0.6
		C125.5,85.2,130.1,74.7,134.6,64.4z"/>
</g>
</svg>
