<?xml version="1.0" encoding="utf-8"?>
<!-- Generator: Adobe Illustrator 24.1.1, SVG Export Plug-In . SVG Version: 6.00 Build 0)  -->
<svg version="1.1" id="Capa_1" xmlns="http://www.w3.org/2000/svg" xmlns:xlink="http://www.w3.org/1999/xlink" x="0px" y="0px"
	 viewBox="0 0 229 228" style="enable-background:new 0 0 229 228;" xml:space="preserve">
<style type="text/css">
	.st0{fill:#FFFFFF;}
	.st1{fill:#27B2AC;}
</style>
<circle class="st0" cx="114.4" cy="114.1" r="112.6"/>
<g>
	<path class="st1" d="M60.6,47.2c9-6.1,18.9-9,29.4-11.1c2.8,14.7,12.1,21.3,26.7,20.8c5.7-0.2,10.9-2.1,15.3-6
		c4.3-3.9,6.4-9,7.4-14.8c10.2,1.9,19.9,4.8,28.6,10.4c1.2,0.8,0.7,1.5,0.5,2.4c-3,9.9-6.3,19.7-9.1,29.7c-2.5,9-3.4,18.3-3,27.6
		c1,26.3,2.4,52.6,3.6,78.9c0,0.3,0,0.7,0,1.2c-30.1,0-60,0-90.2,0c0.1-1,0.1-2,0.2-3c0.9-19.2,1.7-38.3,2.6-57.5
		c0.3-7.4,0.9-14.8,0.9-22.2c0-13.3-2.8-26.1-7.2-38.7C64,59.1,62.4,53.2,60.6,47.2z"/>
	<path class="st1" d="M170.9,49.6c8.6,12.5,15.4,25.3,21.1,39.2c-11,4.6-22,9.2-33.4,14c0.6-5.5,1-10.6,1.6-15.6
		c1.3-10.1,5.4-19.4,8.1-29.1C169,55.3,169.9,52.7,170.9,49.6z"/>
	<path class="st1" d="M37.6,88.8c1.8-7.1,16.7-34.8,21.1-38.9c4.9,17.3,12.3,33.9,11.7,52.6C59.5,98,48.5,93.4,37.6,88.8z"/>
	<path class="st1" d="M69.6,189.2c30,0,60.1,0,90.1,0c0.4,3.1,0,3.7-3,3.7c-28,0-56,0-84,0C69.7,192.9,69.3,192.4,69.6,189.2z"/>
	<path class="st1" d="M192.9,91.4c1.4,3.8,1,5-2.6,6.5c-9.9,4.1-19.8,8.1-29.6,12.1c-0.4,0.2-0.9,0.3-1.6,0.5
		c-0.1-1.5-0.2-2.9-0.2-4.3c0-0.4,0.5-0.9,0.9-1.1c11-4.6,21.9-9.1,32.9-13.7C192.6,91.4,192.7,91.4,192.9,91.4z"/>
	<path class="st1" d="M36.6,91.2c3.5,1.4,6.9,2.9,10.4,4.3c7.1,3,14.2,6.1,21.4,8.9c1.9,0.7,2.5,1.7,2.1,3.6
		c-0.1,0.7-0.1,1.5-0.2,2.4c-0.8-0.2-1.4-0.4-2-0.6c-9.8-4-19.7-8-29.5-12C35.6,96.4,35.1,94.9,36.6,91.2z"/>
	<path class="st1" d="M134.2,35.2c0.8,0.2,1.5,0.3,2.1,0.4c0,8.5-6.9,18.4-20.7,18.9c-13.6,0.4-22.2-8.1-22.7-18.8
		c0.7-0.1,1.4-0.3,2.1-0.4c2.7,11.1,9.7,17,20.9,16.4C126,51.1,132.1,45.3,134.2,35.2z"/>
	<path class="st1" d="M100.9,42.3c9.3,2.4,18.3,2.4,27.3,0.1C123.6,50,109.3,52.9,100.9,42.3z"/>
	<path class="st1" d="M131.2,36.2c0.1,1.7-0.7,2.6-2.1,3.1c-9.6,3.1-19.1,3.1-28.7,0c-1.5-0.5-2.2-1.4-2.1-3.1
		C109.2,39.9,120.1,39.9,131.2,36.2z"/>
</g>
</svg>
