<?xml version="1.0" encoding="utf-8"?>
<!-- Generator: Adobe Illustrator 24.1.1, SVG Export Plug-In . SVG Version: 6.00 Build 0)  -->
<svg version="1.1" id="Capa_1" xmlns="http://www.w3.org/2000/svg" xmlns:xlink="http://www.w3.org/1999/xlink" x="0px" y="0px"
	 viewBox="0 0 229 228" style="enable-background:new 0 0 229 228;" xml:space="preserve">
<style type="text/css">
	.st0{fill:#FFFFFF;}
	.st1{fill:#27B2AC;}
</style>
<circle class="st0" cx="114.9" cy="114.8" r="112.6"/>
<g>
	<path class="st1" d="M72.7,83.6c13.5,0,26.7,0,40.1,0c0,0.8,0,1.5,0,2.3c0,7.8,0,15.5,0,23.3c0,3.1,1,4,4.1,3.7
		c6.5-0.6,11.7-6.1,11.9-12.6c0.1-4.8,0-9.5,0-14.3c0-0.7,0-1.4,0-2.3c0.8,0,1.4-0.1,2.1-0.1c8.5,0,17.1,0,25.6,0c1.2,0,1.9,0,2,1.6
		c1.6,16.9,11.6,29.1,28,33.8c1.9,0.5,2.6,1.3,2.8,3.2c0.9,9.4,1.9,18.8,2.8,28.2c0.2,1.6,0.2,3.1,0.5,4.7c0.1,0.8,0.7,1.4,1.1,2.1
		c0,0.1,0.1,0.1,0.1,0.1c2.5,2.4,2.7,10.7,0.1,12.9c-1,0.9-2.5,1.6-3.8,1.6c-20.4,0.1-40.8,0.1-61.2,0.1c-3.2,0-5.3-2-5.4-5.2
		c-0.1-1.8-0.1-3.6,0-5.5c0-0.7,0-1.6,0.5-2.1c2-2,0.9-4,0.2-6c-2.9-8.5-5.7-17-8.6-25.8c-0.3,0.4-0.5,0.5-0.5,0.7
		c-3.1,9.3-6.2,18.5-9.2,27.8c-0.2,0.5,0,1.2,0.2,1.8c0.4,1.5,1.1,2.9,1.3,4.4c0.2,1.4,0.1,2.9,0,4.3c-0.1,3.6-2.2,5.6-5.8,5.6
		c-9.5,0-19,0-28.5,0c-10.5,0-21,0-31.5,0c-4.2,0-6.2-2-6.3-6.2c0-1.4-0.2-2.9,0.1-4.3c0.3-1.3,0.7-2.9,1.6-3.8
		c1-1.1,1.3-2.1,1.5-3.4c1.1-10.8,2.3-21.5,3.3-32.3c0.1-1.5,0.8-2.1,2.1-2.5c8.4-2.6,15.5-7,20.8-14.1c4.4-5.9,7-12.6,7.7-19.9
		C72.5,84.6,72.6,84.2,72.7,83.6z M102,161.1c-20.5,0-40.8,0-61.2,0c0,1.7,0,3.3,0,5c20.4,0,40.8,0,61.2,0
		C102,164.4,102,162.9,102,161.1z M128.9,166.1c20.4,0,40.8,0,61.2,0c0-1.7,0-3.3,0-5c-20.4,0-40.8,0-61.2,0
		C128.9,162.8,128.9,164.4,128.9,166.1z M78,136.8c1.7,0,3.4,0,5.1,0c1.8,0,3.1-1.1,3-2.6c-0.1-1.7-1.1-2.6-2.8-2.6
		c-3.5,0-7-0.1-10.5,0c-1.7,0-2.7,1.2-2.6,2.7c0.1,1.7,1.2,2.5,2.8,2.5C74.7,136.9,76.3,136.8,78,136.8z M77.9,120.8
		c1.8,0,3.5,0,5.3,0c1.8,0,3-1.2,2.9-2.7c-0.1-1.7-1.2-2.5-2.9-2.5c-3.4,0-6.9,0-10.3,0c-1.7,0-2.7,0.9-2.8,2.6
		c-0.1,1.6,1,2.6,2.7,2.6C74.5,120.9,76.2,120.8,77.9,120.8z M78.1,128.9c0,0,0-0.1,0-0.1c1,0,2,0.1,2.9,0c1.5-0.2,2.4-1.1,2.4-2.6
		c0-1.5-0.9-2.5-2.4-2.6c-1.9-0.1-3.9-0.1-5.8,0c-1.5,0.1-2.3,1.1-2.4,2.6c0,1.4,0.8,2.3,2.2,2.5C76,128.9,77.1,128.9,78.1,128.9z"
		/>
	<path class="st1" d="M185,78.1c-11.7,0-23.1,0-34.6,0c0-5.3,0-10.4,0-15.8c-1.9,0-3.6,0-5.5,0c0,5.3,0,10.4,0,15.7
		c-8.9,0-17.6,0-26.6,0c0-5.2,0-10.5,0-15.8c-1.9,0-3.5,0-5.3,0c0,5.2,0,10.4,0,15.7c-9.9,0-19.5,0-29.4,0c0-5.2,0-10.4,0-15.7
		c-1.8,0-3.4,0-5.3,0c0,5.2,0,10.3,0,15.7c-10.8,0-21.4,0-32.2,0c0-1.7,0-3.4,0-5c0-4,0-8.1,0-12.1c0-3.2,0.9-4.1,4-4.1
		c4.2,0,8.5,0.1,12.7,0c1.4,0,104.1,0,105.4,0c4.4,0.1,8.7,0,13.1,0c2.8,0,3.8,1,3.8,3.8C185,66.3,185,72,185,78.1z"/>
	<path class="st1" d="M188.2,113.6c-14.6-3.3-24-16.4-24.4-30.1c0.7,0,1.4,0,2.1,0c5.9,0,11.7,0,17.6,0c0.9,0,1.8-0.2,1.9,1.3
		c0.9,9.3,1.9,18.6,2.8,28C188.2,112.9,188.2,113.2,188.2,113.6z"/>
	<path class="st1" d="M42.6,113.7c0.3-3.4,0.7-6.8,1-10.1c0.6-6.1,1.3-12.2,1.9-18.3c0.1-1,0.1-1.9,1.6-1.9c6.4,0.1,12.8,0,19.1,0
		c0.3,0,0.6,0.1,0.9,0.2C66.7,97.7,56.4,110.3,42.6,113.7z"/>
	<path class="st1" d="M118.2,106.8c0-7.8,0-15.5,0-23.2c1.7,0,3.3,0,5.1,0c0.1,0.5,0.2,1,0.2,1.5c0,4.6,0,9.3,0,13.9
		C123.5,102.9,121.7,105.6,118.2,106.8z"/>
	<path class="st1" d="M102,161.1c0,1.8,0,3.3,0,5c-20.4,0-40.8,0-61.2,0c0-1.7,0-3.3,0-5C61.2,161.1,81.6,161.1,102,161.1z"/>
	<path class="st1" d="M128.9,166.1c0-1.7,0-3.3,0-5c20.4,0,40.7,0,61.2,0c0,1.7,0,3.3,0,5C169.7,166.1,149.4,166.1,128.9,166.1z"/>
	<rect x="62.4" y="112.2" class="st1" width="31.4" height="43.9"/>
</g>
</svg>
