<?xml version="1.0" encoding="utf-8"?>
<!-- Generator: Adobe Illustrator 24.1.1, SVG Export Plug-In . SVG Version: 6.00 Build 0)  -->
<svg version="1.1" id="Capa_1" xmlns="http://www.w3.org/2000/svg" xmlns:xlink="http://www.w3.org/1999/xlink" x="0px" y="0px"
	 viewBox="0 0 248.1 240.4" style="enable-background:new 0 0 248.1 240.4;" xml:space="preserve">
<style type="text/css">
	.st0{fill:#46BDD5;}
	.st1{fill:#FFFFFF;}
	.st2{fill:#2AB1AC;}
	.st3{fill:#DADADA;}
	.st4{fill:#2CA79F;}
</style>
<rect class="st0" width="248.1" height="240.4"/>
<circle class="st1" cx="117.9" cy="121.8" r="79"/>
<g>
	<path class="st2" d="M81,77.1c0.9,3.4,1.7,6.7,2.6,10.1c0.1,0,0.2,0,0.2,0c-0.2-4.2-1.4-8.3-1.9-12.5c1.1,5.5,2.3,11,3.5,16.6
		c-0.4,0.1-0.7,0.1-1,0.2c0,0.1,0,0.2,0,0.3c9.4,0.3,18.9,0.5,28.3,0.8c0,0.1,0,0.3,0,0.4c-9.5-0.2-19-0.4-28.5-0.7
		c0,0.1,0,0.3,0,0.4c0.7,0,1.4,0,2.2,0c1.3,0,1.3,0,1.4,1.4c0,1.7,0.1,3.4,0.2,5.1c0,0.3,0.3,0.6,0.4,0.9c0.1,0.4,0.3,0.7,0.3,1.1
		c0,2.8,0.1,5.6,0.1,8.3c0,0.8,0.3,1.2,1,1.4c0.9,0.3,1.8,0.7,2.7,1c0.6,0.2,0.9,0.5,0.9,1.2c0.1,2.6,0.2,5.2,0.3,7.8
		c0.3,8.2,0.5,16.5,0.8,24.7c0.1,2.3,0.2,4.6,0.3,7c0,0.6-0.2,0.9-0.8,0.9c-2.7,0-5.4,0.1-8.2,0.2c-0.5,0-0.8-0.1-0.9-0.7
		c-0.2-5-0.7-10.1-0.7-15.1c0.1-10,0.4-20,0.6-30c0.1-3.6,0-7.1,0-10.7c0-0.4-0.1-0.8-0.2-1.1c-0.1,0-0.2,0-0.3,0
		c0,0.4-0.1,0.8-0.1,1.1c0.5,6.3-0.3,12.6-1,18.8c-0.4,3.8-1.1,7.6-1.7,11.3c-0.4,2.6,0,5.2,0.3,7.8c0.8,6.4,1.7,12.8,2.4,19.3
		c0.2,2,0.2,4,0.3,6c0,0.9,0.3,1.4,1.2,1.5c0.6,0.1,0.8,0.3,0.6,0.9c-0.1,0.2-0.1,0.5-0.1,0.7c0.2,2.4-1,4.3-2.2,6.2
		c-0.4,0.6-0.9,0.9-1.6,0.9c-2.3,0.1-4.6,0.3-6.8,0.5c-0.6,0.1-1.1,0.3-1.6,0.4c0,0.1,0,0.3,0.1,0.4c3.4,0,6.8,0,10.2,0
		c0,0.1,0,0.2,0,0.4c-4.9,0-9.9,0-14.9,0c0-0.2,0-0.5,0-0.9c1,0.3,1.1-0.2,1-0.9c-0.9-7.5-1.7-15-2.5-22.5c-0.3-2.7-0.6-5.4-0.7-8
		c0-3.6,0.3-7.3,0.4-10.9c0.1-2.4,0.2-4.8,0.2-7.2c0.1-5.7,1-11.3,1.8-16.9c0.6-4.5,2-8.9,3.3-13.2c0.8-2.8,1.9-5.6,3.2-8.3
		c0.9-1.8,2.3-3.3,3.5-4.9c0.4-0.5,0.8-1,1.2-1.6C80.9,77.1,80.9,77.1,81,77.1z M92.7,129c0.1-0.9-0.7-0.8-1.2-1
		c-0.7-0.3-0.8,0.2-1,0.7c-1.8,5-3.6,10.1-5.4,15.1c-0.3,0.9-0.3,0.9,1.1,1.5c0.8,0.3,0.9-0.1,1.1-0.7c1.2-3.5,2.4-7,3.6-10.6
		C91.5,132.4,92.1,130.7,92.7,129z"/>
	<path class="st2" d="M155.2,171.9c3.5,0,7,0,10.4,0.2c0,0.1,0,0.2,0,0.3c-0.2,0-0.5,0.1-0.7,0.1c-4.7,0-9.4,0-14.1,0
		c-0.4,0-0.9,0-0.8-0.6c0-0.2,0.4-0.5,0.7-0.5c1-0.2,1.3-0.7,0.8-1.5c-0.7-1.4-1.5-2.7-2.3-4c-0.2-0.3-0.4-0.7-0.3-0.9
		c0.4-1.3,0.8-2.7,1.3-4c0.1-0.3,0.3-0.6,0.3-0.9c0.3-3.6,0.6-7.2,0.8-10.9c0.3-6,0.8-12,0.7-18c-0.1-5.9,0.4-11.6,0.6-17.5
		c0.1-2.4-0.1-4.8-0.4-7.2c-0.2-2-0.7-3.9-1.1-5.9c-0.1-0.7-0.1-1.4,0-2.1c0.5-2.4,1.2-4.7,1.6-7.1c0.3-1.9,0.5-3.8,0.6-5.6
		c0.1-3.3,0.3-6.5,1.4-9.6c0.1-0.3,0.2-0.5,0.4-1c0.4,0.5,0.8,0.8,1.1,1.3c1.9,3.3,3.8,6.6,4.9,10.3c1.4,5,2.5,10.1,3.8,15.2
		c1.7,6.5,2.2,13.1,3,19.7c0.4,3.2,0.5,6.5,0.6,9.8c0.2,5.3,0.4,10.6,0.5,15.9c0,2.6-0.2,5.2-0.2,7.9c-0.1,2.3,0,4.5-0.1,6.8
		c-0.1,2.4-0.3,4.9-0.5,7.3c-0.1,0.8-0.5,1.2-1.3,1.3c-2.1,0.2-4.3,0.3-6.4,0.5c-1.6,0.1-3.2,0.4-4.7,0.6
		C155.5,171.6,155.4,171.8,155.2,171.9z"/>
	<path class="st2" d="M127.2,109.7c0-3,0-6,0-9c0.1,0,0.2,0,0.3,0c0,2.7,0,5.3,0,8c0.1,0,0.2,0,0.3,0c0-2.6,0-5.2,0-8
		c1,0.3,1.8,0.6,2.6,1c0.2,0.1,0.3,0.4,0.3,0.6c0.1,2.6,0.2,5.1,0.3,7.7c0,0.1-0.1,0.2-0.1,0.4c-0.9-0.3-1.8-0.7-2.7-1
		c0,0.1-0.1,0.1-0.1,0.2c1,0.4,1.9,0.8,2.9,1.3c0,0.1-0.1,0.2-0.1,0.2c-1.1-0.4-2.3-0.8-3.4-1.3c0,0.1-0.1,0.1-0.1,0.2
		c0.1,0.1,0.1,0.3,0.3,0.4c0.2,0.1,0.4,0.2,0.6,0.3c0.9,0.4,2.2,0.6,2.7,1.3c0.5,0.7,0.2,1.9,0.2,2.8c0.2,6.7,0.4,13.3,0.6,20
		c0.2,5.7,0.3,11.4,0.5,17.1c0,0.2,0.1,0.4,0.1,0.7c0.1,0,0.2,0,0.3,0c-0.4-13.5-0.7-27-1.1-40.6c1.2,0.5,2.3,0.8,3.2,1.3
		c0.9,0.4,1.6,0.5,2.5,0c0.8-0.4,1.7-0.7,2.9-1.1c-0.5,13.6-0.9,26.9-1.3,40.3c0.1,0,0.2,0,0.3,0.1c0.1-0.2,0.1-0.4,0.1-0.7
		c0.2-5.4,0.4-10.7,0.6-16.1c0.2-6.9,0.4-13.8,0.6-20.7c0-0.7,0.1-1.5,0.1-2.2c0-0.7,0.3-1,0.9-1.2c0.9-0.3,1.9-0.8,2.8-1.1
		c0.7-0.2,0.9-0.6,0.9-1.4c0-2.7,0-5.5,0.1-8.2c0-0.5,0.3-0.9,0.5-1.4c0.1-0.2,0.2-0.5,0.2-0.8c0.1-1.7,0.1-3.4,0.1-5.1
		c0-0.6,0.1-1.1,0.8-1c0.6,0.1,1.3-0.4,1.6,0.8c1,4.5,0.4,9,0.5,13.5c0.2,6.1,0.2,12.2,0.4,18.2c0.1,4.1,0.5,8.1,0.8,12.2
		c0.2,3,0.4,6-0.1,9c-0.3,1.9-0.4,3.8-0.5,5.7c-0.1,0.7-0.4,1-1.2,1c-8.3,0-16.6,0.1-24.8,0.2c-0.9,0-1.1-0.3-1.1-1.2
		c0-13,0-26-0.1-39.1c0-6.3-0.1-12.6-0.1-19c0-1.2,0-1.2,1.2-1.2c2.1,0,2.1,0,2.2,2.1c0.1,1.2-0.1,2.4-0.1,3.7c0,0.7,0,1.3,0.8,1.7
		c0.2,0.1,0.4,0.6,0.4,1c0,2.6,0,5.1,0,7.7c0,0.3,0,0.6,0.1,0.9C127,109.7,127.1,109.7,127.2,109.7z M142.8,127.4
		c-1.4,0.1-1.9,0.7-1.5,1.8c1.7,5,3.5,9.9,5.2,14.9c0.2,0.5,0.3,0.9,1,0.7c1.4-0.5,1.6-0.6,1.2-1.5c-0.5-1.3-0.9-2.6-1.4-3.9
		c-1.4-3.8-2.7-7.6-4.1-11.4C143.2,127.7,142.9,127.5,142.8,127.4z"/>
	<path class="st2" d="M106.3,110.1c-1.1,0.4-2.3,0.9-3.4,1.3c0-0.1-0.1-0.2-0.1-0.3c1-0.4,1.9-0.8,2.9-1.2c0-0.1-0.1-0.2-0.1-0.2
		c-0.9,0.3-1.7,0.7-2.7,1c0-1.4,0-2.6,0-3.8c0-1.4,0.1-2.7,0.2-4.1c0-0.3,0.3-0.7,0.5-0.8c0.7-0.3,1.5-0.6,2.4-0.9c0,2.8,0,5.4,0,8
		c0.1,0,0.2,0,0.3,0c0-2.7,0-5.3,0-8c0.1,0,0.3,0,0.4,0c0,3,0,6.1,0,9.1c0.1,0,0.2,0,0.3,0c0-0.4,0.1-0.7,0.1-1.1c0-2.5,0-4.9,0-7.4
		c0-0.6,0.1-1,0.7-1.3c0.3-0.2,0.5-0.9,0.5-1.3c0.1-1.6,0-3.3,0-4.9c0-0.8,0.3-1.2,1.1-1.1c0.8,0.1,1.7,0.1,2.6,0.1
		c0.7,0,0.9,0.2,0.9,0.9c0.2,2.5,0.4,5.1,0.6,7.6c0,0.1,0.1,0.2,0.3,0.3c0-0.3,0.1-0.6,0.1-0.9c0-2.5,0-5,0-7.4c0-0.7,0.2-1,1-1
		c2,0,3.9,0,5.9,0c0.8,0,1.1,0.2,1,1c0,6.2,0,12.5,0,18.7c0.1,10.2,0.1,20.3,0.2,30.5c0,3.1,0.1,6.1,0.1,9.2c0,0.7-0.2,1-0.9,1
		c-2,0-4,0.1-6,0.1c-0.4,0-0.8-0.1-1.2-0.1c-1-14.2,0-28.3,0.1-42.4c-0.1,0-0.2,0-0.3,0c0,0.5-0.1,0.9-0.1,1.4
		c-0.2,5.2-0.4,10.3-0.5,15.5c-0.1,3.7,0,7.3-0.1,11c0,2.1-0.2,4.3-0.3,6.4c-0.1,2.3-0.1,4.6-0.1,7c0,0.8-0.3,1-1.1,1.1
		c-3.1,0.1-6.1,0.2-9.2,0.3c-0.8,0-0.8-0.5-0.8-1.1c0.1-3.6,0.2-7.2,0.3-10.8c0.3-9.5,0.5-18.9,0.7-28.4c0-0.6,0.2-0.9,0.8-1.1
		c0.8-0.3,1.6-0.6,2.3-0.9c0.2-0.1,0.4-0.3,0.7-0.4C106.4,110.4,106.3,110.2,106.3,110.1z M119.5,102.6c-0.5-0.1-0.9-0.1-1.3-0.4
		c-0.4-0.2-0.5-0.8-0.9-1c-0.7-0.5-1.3-0.2-1.9,0.3c-0.6,0.6-0.7,1.6-0.1,2.2c0.5,0.6,1.2,0.8,1.9,0.4
		C117.9,103.8,118.6,103.2,119.5,102.6z M120.3,148.3c-0.8-0.4-1.5-0.6-1.9-1c-0.7-0.7-1.6-0.9-2.3-0.3c-0.6,0.6-0.7,1.6-0.2,2.2
		c0.6,0.7,1.4,0.7,2.3,0.1c0.4-0.3,0.9-0.4,1.4-0.6C119.8,148.6,120,148.4,120.3,148.3z M116.7,134.2c0.2-0.1,0.7-0.2,1-0.5
		c0.4-0.5,0.8-0.9,1.5-0.8c0.1,0,0.3-0.2,0.3-0.4c0-0.1-0.2-0.3-0.3-0.3c-0.7,0.2-1-0.2-1.4-0.7c-0.5-0.7-1.2-0.8-2-0.4
		c-0.8,0.4-1.1,0.9-1,1.8C114.9,133.7,115.5,134.2,116.7,134.2z M119.5,117.2c-0.7-0.5-1.3-1.1-2.1-1.5c-0.7-0.4-1.4-0.2-2,0.5
		c-0.5,0.6-0.4,1.3,0,1.8c0.5,0.6,1.1,0.8,1.8,0.5C118,118.1,118.7,117.6,119.5,117.2z"/>
	<path class="st2" d="M101.6,73.6c0.6,1.6,1.2,3.2,1.9,5.1c2.7-2.1,5.2-4.2,7.8-6.2c0.1,0,0.2,0.1,0.3,0.1c-0.1,0.2,0,0.5-0.2,0.7
		c-2.3,1.9-4.6,3.8-7,5.6c-0.1,0.1-0.2,0.1-0.3,0.2c-0.1,0.2-0.2,0.5-0.4,0.8c0.3,0,0.6,0.1,0.8,0c1.5-0.7,3.1-1.4,4.6-2.1
		c0.9-0.4,1.9-0.9,2.8-1.4c0.7-0.4,1.1-0.2,1.5,0.4c0.9,1.4,1.9,2.9,2.8,4.3c0.2,0.3,0.5,0.6,0.8,1c-1.2,1.6-2.4,3.3-3.6,4.9
		c-0.2,0.3-0.4,0.8-0.5,1.2c-0.1,1,0,2,0,3c0,0.5-0.2,0.7-0.8,0.7c-5.6-0.2-11.1-0.3-16.7-0.4c-2.7-0.1-5.4-0.1-8.1-0.1
		c-1.6,0-1.6-0.1-1.9-1.6c-1-5-2.1-9.9-3.1-14.9c-0.1-0.6-0.1-1,0.5-1.3c4.6-2.2,9.2-4.5,13.7-6.7c0.1,0,0.2,0,0.4,0
		c1.6,3.8,3.3,7.5,5.6,10.9c-1.5-4.8-3.8-9.3-5.3-14.2c0.1,0,0.2-0.1,0.3-0.1c0.1,0.3,0.3,0.5,0.4,0.8c1.1,2.8,2.2,5.6,3.3,8.3
		C101.3,73,101.5,73.3,101.6,73.6L101.6,73.6z"/>
	<path class="st2" d="M154.3,73.3c-0.3,0.4-0.6,0.8-0.8,1.3c-1.2,4.4-2.4,8.9-3.6,13.4c-0.1,0.5-0.3,0.9-0.6,1.4
		c-0.4-2.1-0.8-4.1-1.3-6.4c-0.1,0.2-0.2,0.3-0.2,0.3c0.1,2.3,0.2,4.5,0.3,6.8c0,0.9-0.2,1.1-1.1,1c-0.5-0.1-0.9-0.2-1.4-0.2
		c-7.3,0.1-14.7,0.3-22,0.4c-1.4,0-1.4,0-1.4-1.4c0-3,0-6-0.1-9c0-0.6,0.2-0.8,0.7-0.8c1.2,0,2-0.4,2.3-1.6c0.2-0.6,0.6-1.2,1-1.9
		c0.9,0.6,1.7,1.1,2.6,1.7c1.1,0.7,2.2,1.5,3.4,2.2c0.4,0.3,0.9,0.3,1.2-0.2c0.8-1.7,1.7-3.5,2.4-5.2c1-2.4,1.9-4.8,2.9-7.1
		c0.1-0.2,0.1-0.3,0.2-0.5c0.7-1.6,0.9-1.6,2.5-0.8c2.2,1.1,4.5,1.9,6.6,3C150.1,70.6,152.2,72,154.3,73.3L154.3,73.3z"/>
	<path class="st2" d="M93.8,112.5c0.9,0.4,1.8,0.6,2.6,1c0.9,0.5,1.8,0.4,2.7,0c1-0.4,2-0.8,3-1.2c0,2.2,0,4.2,0,6.2
		c-0.1,4.1-0.2,8.2-0.3,12.3c-0.2,7.2-0.4,14.3-0.6,21.5c0,0.7-0.2,1.1-1,1c-1.4,0-2.9,0.1-4.3,0.1c-0.7,0-0.9-0.2-1-0.9
		c-0.1-3.1-0.2-6.1-0.3-9.2c-0.3-8.6-0.6-17.1-0.9-25.7C93.8,116,93.8,114.3,93.8,112.5z"/>
	<path class="st2" d="M149.3,153.5c-0.6,2.2-1.1,4.2-1.8,6.2c-0.3,0.9-1.1,1.3-2.1,1.4c-3.4,0.5-6.9,1.2-10.3,1.6
		c-1.8,0.2-3.6,0-5.5,0c-3.5-0.1-7-0.1-10.4-0.2c-1.6,0-3.1-0.1-4.7-0.2c-0.5,0-0.8-0.2-0.8-0.8c0-2.4,0-4.8,0.1-7.1
		c0-0.7,0.5-0.6,0.9-0.6c2.4,0,4.8,0,7.2,0c8.5-0.1,17-0.2,25.5-0.3C148,153.5,148.5,153.5,149.3,153.5z M115,157.7
		c0.5,0.6,0.8,1.2,1.2,1.5c0.5,0.4,1.1,0.3,1.7-0.1c0.4-0.3,1-0.4,1.5-0.7c0.2-0.1,0.4-0.3,0.6-0.5c-0.2-0.2-0.4-0.5-0.6-0.5
		c-0.7,0-1-0.3-1.5-0.7c-0.4-0.3-1.1-0.5-1.6-0.3C115.9,156.6,115.6,157.2,115,157.7z"/>
	<path class="st2" d="M131.2,55.8c2,2,3.9,3.9,5.8,5.7c0.2,0.2,0.4,0.4,0.6,0.6c1.2,1,1.3,1.1,0.6,2.4c-2.3,4.1-2.9,8.9-5,13.1
		c-0.2,0.4-0.4,0.7-0.6,1.2c-0.3-0.2-0.6-0.4-0.8-0.5c-1.6-1.1-3.3-2.2-4.9-3.3c-0.8-0.6-1.4-0.4-1.8,0.6c-0.4,0.8-0.8,1.7-1.2,2.5
		c-0.1,0.2-0.4,0.4-0.6,0.4c-1.2,0.2-2.4,0.3-3.7,0.4c1.2-2.2,2.6-4.5,3.9-6.9c1.5,1,2.9,2,4.4,2.9c0-0.1,0.1-0.1,0.1-0.2
		c-1.1-0.8-2.2-1.5-3.3-2.3c-1.1-0.7-1-0.7-0.5-1.8C126.5,65.7,128.8,60.9,131.2,55.8z M132.3,78c1.9-5.1,3.8-10.1,5.7-15
		c-0.1,0-0.2-0.1-0.3-0.1c-1.9,4.9-3.7,9.8-5.6,14.7c-1.2-0.8-2.2-1.5-3.3-2.2c0,0.1-0.1,0.1-0.1,0.2
		C129.9,76.3,131.1,77.1,132.3,78z"/>
	<path class="st2" d="M106.1,160c-6.1,0.2-12.3,0.4-18.4,0.6c-0.2,0-0.3,0-0.5,0c-2.1,0.2-2.1,0.2-2.2-1.9c-0.1-1.2-0.1-2.5-0.2-3.8
		c0-0.7,0.2-1,0.9-1c4.4-0.1,8.8-0.2,13.3-0.4c4.2-0.1,8.3-0.2,12.4-0.3c0.8,0,1.1,0.2,1,1c-0.1,1.2-0.1,2.3-0.2,3.5
		c-0.2,1.5-0.9,2.2-2.5,2.2C108.6,160,107.4,160,106.1,160C106.1,160,106.1,160,106.1,160z"/>
	<path class="st2" d="M117.1,62.2c-3.2,0-6.5,0-9.7,0c-0.6,0-1-0.2-1.2-0.7c-0.5-1.4-1.2-2.8-1.6-4.3c-0.4-1.2,0-1.6,1.2-1.7
		c4.1-0.2,8.3-0.6,12.4-0.7c3.1-0.1,6.2,0.2,9.3,0.3c0,0,0.1,0,0.1,0c2.6,0.3,3.1,1.1,1.9,3.4c-0.4,0.8-0.9,1.7-1.3,2.5
		c-0.3,0.7-0.8,0.9-1.5,0.9c-3.2,0-6.4,0-9.6,0C117.1,62,117.1,62.1,117.1,62.2z"/>
	<path class="st2" d="M101.7,73.6c-0.2-0.7-0.4-1.4-0.7-2.1c-1-2.6-2.1-5.1-3-7.7c-0.1-0.3-0.2-0.9,0-1.1c1.8-2,3.7-3.9,5.6-5.8
		c0.1-0.1,0.2-0.1,0.3-0.2c2,5.4,4.9,10.2,7.3,15.4c-2.4,1.9-4.9,3.9-7.5,6c-0.5-1.2-0.9-2.3-1.4-3.4
		C102.1,74.4,101.9,74,101.7,73.6C101.6,73.6,101.7,73.6,101.7,73.6z"/>
	<path class="st2" d="M98,93.1c2.7,0,5.4,0,8.1,0c0.7,0,0.9,0.3,0.9,0.9c0,1.6,0,3.1,0,4.7c0,0.3-0.3,0.8-0.6,0.9
		c-2.6,1-5.2,1.9-7.8,2.8c-0.3,0.1-0.7,0-1-0.1c-2.5-1.1-5.1-2.2-7.6-3.4c-0.4-0.2-0.8-0.7-0.8-1.1c-0.1-1.4,0-2.8-0.1-4.2
		c0-0.7,0.3-0.8,0.9-0.8c2.7,0,5.4,0,8,0C98,92.8,98,93,98,93.1z M98.1,97.2c-0.4,0.6-0.6,1.1-1,1.4c-0.5,0.6-0.6,1.3-0.2,1.9
		c0.4,0.6,1.2,0.7,1.8,0.4c0.5-0.4,0.8-1.2,0.5-1.8c-0.3-0.6-0.6-1.2-0.9-1.7C98.2,97.3,98,97.2,98.1,97.2z"/>
	<path class="st2" d="M125.5,66.9c-2.4,5.3-5.1,10.1-8.2,15c-0.5-0.9-0.9-1.7-1.3-2.4c-1.5-2.6-3.1-5.2-4.6-7.8
		c-0.9-1.5-1.6-3.1-2.5-4.7C114.4,66.9,119.8,66.9,125.5,66.9z"/>
	<path class="st2" d="M135.9,92.5c2.6,0,5.3,0,7.9,0c0.8,0,1.1,0.2,1,1c-0.1,1.2-0.1,2.3,0,3.5c0,0.6-0.2,1-0.8,1.3
		c-2.5,1.1-5.1,2.3-7.6,3.4c-0.3,0.1-0.8,0.2-1.1,0.1c-2.6-0.9-5.1-1.8-7.7-2.7c-0.5-0.2-0.8-0.5-0.7-1.1c0-1.4,0-2.9,0-4.3
		c0-0.7,0.2-0.9,0.9-0.9c2.7,0,5.4,0,8.2,0C135.9,92.6,135.9,92.6,135.9,92.5z M135.8,96.6c0,0-0.1,0-0.2,0.2
		c-0.3,0.6-0.7,1.2-0.9,1.8c-0.3,0.7-0.2,1.3,0.4,1.7c0.6,0.5,1.4,0.4,1.9-0.3c0.4-0.6,0.4-1.2,0-1.8
		C136.6,97.7,136.2,97.2,135.8,96.6z"/>
	<path class="st2" d="M150.3,178.1c-0.1-1.5-0.3-3-0.4-4.4c0-0.5,0.1-0.8,0.7-0.8c4.8,0,9.6,0,14.4,0c0.1,0,0.2,0.1,0.5,0.1
		c-0.5,1.9-1,3.8-1.6,5.7c-0.1,0.2-0.6,0.3-0.9,0.3c-2.8-0.2-5.6-0.4-8.4-0.6C153.2,178.3,151.8,178.2,150.3,178.1z"/>
	<path class="st2" d="M71.3,178.6c-0.7,0.2-1,0-1.2-0.7c-0.2-1.4-0.5-2.8-0.8-4.1c-0.2-0.8,0.1-1,0.8-1c3.6,0,7.2,0,10.8-0.1
		c0.9,0,1.8,0,2.6-0.1c0.6,0,0.8,0.2,0.8,0.8c0,1.1,0.1,2.3,0.2,3.4c0,0.5-0.1,0.7-0.6,0.8c-1.8,0.1-3.6,0.3-5.5,0.4
		C76.1,178.3,73.6,178.5,71.3,178.6z"/>
	<path class="st2" d="M93.6,102.2c1.1,0.4,2.2,0.9,3.3,1.3c0.8,0.4,1.6,0.5,2.4,0.1c1-0.5,2-0.7,3.2-1.2c0,0.5,0.1,0.8,0.1,1.1
		c0,2.2-0.1,4.3-0.2,6.5c0,0.7-0.3,1.1-0.9,1.3c-0.1,0-0.1,0-0.2,0.1c-3.3,1.4-3.9,1.4-7.1-0.2c-0.2-0.1-0.5-0.4-0.5-0.6
		c-0.1-2.7-0.2-5.3-0.2-8C93.4,102.5,93.5,102.4,93.6,102.2z"/>
	<path class="st2" d="M131.5,101.9c1,0.4,2.1,0.7,3.2,1.2c0.7,0.3,1.3,0.3,2,0c1.2-0.5,2.4-1,3.6-1.5c0.1,0.2,0.1,0.3,0.1,0.4
		c-0.1,2.6-0.1,5.1-0.3,7.7c0,0.3-0.4,0.6-0.6,0.9c-0.1,0.1-0.2,0.1-0.3,0.1c-3.5,1.4-3.5,1.4-7,0c-0.3-0.1-0.7-0.4-0.7-0.7
		C131.5,107.4,131.5,104.7,131.5,101.9z"/>
	<path class="st2" d="M106.8,62.5c7,0,13.8,0,20.6,0c-0.5,1.2-1,2.5-1.6,3.7c-0.1,0.3-0.7,0.5-1,0.5c-5.2-0.1-10.4-0.2-15.6-0.3
		c-0.3,0-0.6-0.3-0.7-0.5C107.9,64.9,107.4,63.8,106.8,62.5z"/>
	<path class="st2" d="M121.6,80.9c0,1.3,0,2.6,0,3.9c0,1.8,0,3.7,0,5.5c0,0.4,0,0.9-0.6,0.9c-2.3,0-4.6,0-7,0
		c0.1-0.7,0.3-1.3,0.2-1.9c-0.2-1.9,1-3,2.2-4.2c1.6-1.5,3.3-2.9,4.9-4.4C121.4,80.9,121.5,80.9,121.6,80.9z M116.5,90.8
		c0.5-0.3,0.8-0.4,1-0.5c0.5-0.2,1-0.4,1.5-0.7c0.2-0.1,0.4-0.3,0.6-0.4c-0.2-0.2-0.4-0.3-0.6-0.5c-0.4-0.2-0.9-0.4-1.2-0.7
		c-0.5-0.6-1.1-0.6-1.7-0.3c-0.7,0.4-1.1,1-0.8,1.7C115.5,90,116.1,90.4,116.5,90.8z"/>
	<path class="st2" d="M90,100.7c0.8,0.3,1.7,0.7,2.5,1.1c0.2,0.1,0.4,0.6,0.4,0.9c0.1,2,0.1,4,0.2,6c0,0.6,0,1.2,0,2
		c-1-0.4-2-0.7-2.9-1.1c-0.2-0.1-0.4-0.4-0.4-0.6c0-2.7,0-5.4,0-8C89.9,100.8,89.9,100.8,90,100.7z"/>
	<path class="st2" d="M140.7,110.1c0-0.5,0-0.9,0-1.4c0.1-2.2,0.2-4.4,0.2-6.6c0-0.6,0.2-1,0.8-1.2c0.7-0.2,1.4-0.6,2.2-0.9
		c0,0.4,0.1,0.6,0.1,0.8c0,2.4,0,4.8,0,7.1c0,0.7-0.2,1-0.8,1.2C142.4,109.5,141.6,109.8,140.7,110.1z"/>
	<path class="st3" d="M126.5,92.8c0,0.3,0.1,0.6,0.1,0.9c0,1.5,0,3,0,4.5c0,0.6,0.2,0.9,0.8,1.1c2.6,0.9,5.1,1.9,7.7,2.8
		c0.5,0.2,1.1,0.1,1.6-0.1c2.5-1.1,5-2.2,7.5-3.3c0.7-0.3,1-0.7,1-1.5c0-1.3,0-2.5,0-3.8c0-0.3,0.1-0.6,0.1-0.8c0.1,0,0.2,0,0.3,0
		c0,0.3,0,0.7,0,1c0,1.5-0.1,2.9,0,4.4c0,0.6-0.2,0.9-0.8,1.2c-2.7,1.1-5.5,2.3-8.2,3.4c-0.4,0.2-1,0.2-1.5,0
		c-2.7-0.9-5.4-1.9-8.1-2.9c-0.5-0.2-0.9-0.4-0.9-1c0-1.8,0-3.6,0.1-5.4c0-0.2,0.1-0.3,0.1-0.5C126.3,92.8,126.4,92.8,126.5,92.8z"
		/>
	<path class="st3" d="M107.8,93.3c0,0.4,0,0.8,0,1.2c0,1.5,0,3.1,0.1,4.6c0,0.6-0.2,0.9-0.7,1.1c-2.8,1-5.7,2.1-8.5,3.1
		c-0.4,0.1-0.9,0.1-1.2-0.1c-2.8-1.1-5.5-2.3-8.3-3.5c-0.3-0.1-0.7-0.5-0.7-0.8c-0.1-2,0-3.9,0-5.9c0,0,0.1-0.1,0.2-0.3
		c0.1,0.3,0.1,0.6,0.1,0.8c0,1.5,0.1,2.9,0.1,4.4c0,0.6,0.2,0.9,0.7,1.1c2.6,1.1,5.2,2.3,7.8,3.4c0.5,0.2,1.1,0.2,1.6,0
		c2.5-0.8,4.9-1.8,7.4-2.7c0.8-0.3,1.1-0.7,1-1.5c0-1.4,0-2.8,0-4.2c0-0.3,0-0.6,0.1-1C107.5,93.3,107.6,93.3,107.8,93.3z"/>
	<path class="st2" d="M154.3,73.3c0.5,1.5-0.3,2.7-0.6,4.1c-1.1,4.4-2.2,8.7-3.3,13c-0.1,0.4-0.1,0.8-0.2,1.5
		c-0.4-0.8-0.7-1.4-0.4-2.2c1.4-5.1,2.8-10.2,4.2-15.4C154,74,154.2,73.6,154.3,73.3C154.3,73.3,154.3,73.3,154.3,73.3z"/>
	<path class="st3" d="M144.1,91.7c-7.3,0.1-14.5,0.3-22,0.4C122.8,91.6,138.5,91.4,144.1,91.7z"/>
	<path class="st2" d="M140.7,110.6c0.9-0.3,1.7-0.7,2.6-1c0.8-0.2,1-0.7,1-1.5c0-2.1,0-4.3,0-6.4c0-0.6,0.1-1.2,0.1-1.8
		c0.1,0,0.2,0,0.3,0c0,0.2,0.1,0.4,0.1,0.6c0,2.8-0.1,5.5-0.2,8.3c0,0.3-0.2,0.7-0.4,0.8c-1.1,0.5-2.3,0.9-3.4,1.4
		C140.8,110.8,140.7,110.7,140.7,110.6z"/>
	<path class="st3" d="M89.4,100.4c0,0.3,0.1,0.7,0.1,1c0,2.4,0,4.9,0,7.3c0,0.7,0.2,1.1,0.9,1.3c0.7,0.2,1.4,0.5,2.1,0.8
		c0.2,0.1,0.4,0.3,0.7,0.4c0,0.1-0.1,0.2-0.1,0.3c-1.2-0.5-2.4-1-3.5-1.5c-0.2-0.1-0.3-0.4-0.3-0.6c-0.1-2.9-0.1-5.7-0.2-8.6
		c0-0.1,0.1-0.3,0.1-0.4C89.3,100.4,89.4,100.4,89.4,100.4z"/>
	<path class="st3" d="M113.9,92.1c0.8-0.5,6.9-0.5,7.9,0C119,92.1,116.5,92.1,113.9,92.1z"/>
	<path class="st2" d="M131.7,110.8c0.8,0.3,1.7,0.6,2.5,0.9c1.1,0.5,2.2,0.5,3.3,0c0.8-0.4,1.7-0.6,2.5-0.9c0,0.1,0.1,0.3,0.1,0.4
		c-1.3,0.5-2.6,1.4-3.9,1.4c-1.6,0-3.1-0.9-4.7-1.4C131.6,111.1,131.7,110.9,131.7,110.8z"/>
	<path class="st3" d="M93.7,111.4c1,0.4,2,0.7,3,1.1c0.8,0.4,1.5,0.3,2.3,0c1-0.4,2.1-0.8,3.1-1.1c0,0.1,0.1,0.2,0.1,0.2
		c-0.4,0.2-0.8,0.3-1.2,0.5c-3.6,1.4-3.6,1.4-7-0.2c-0.2-0.1-0.3-0.2-0.4-0.3C93.7,111.5,93.7,111.5,93.7,111.4z"/>
	<path class="st3" d="M148.1,92c-0.5-0.1-1.1-0.2-1.7-0.4c0.7,0,1.2,0,1.8,0C148.2,91.7,148.1,91.9,148.1,92z"/>
	<path class="st3" d="M92.7,129c-0.6,1.7-1.2,3.3-1.7,5c-1.2,3.5-2.4,7-3.6,10.6c-0.2,0.6-0.4,1-1.1,0.7c-1.4-0.6-1.5-0.6-1.1-1.5
		c1.8-5,3.6-10,5.4-15.1c0.2-0.5,0.4-1,1-0.7C92,128.3,92.8,128.2,92.7,129z M86.6,144.9c0.1-0.1,0.2-0.3,0.3-0.5
		c0.3-0.7,0.5-1.5,0.8-2.2c1.5-4.2,2.9-8.5,4.4-12.7c0.2-0.7,0-0.9-0.6-1c-0.8-0.3-0.8,0.4-0.9,0.8c-1.8,4.8-3.5,9.6-5.3,14.5
		C85.2,144.3,85.7,145,86.6,144.9z"/>
	<path class="st3" d="M142.8,127.4c0.1,0.1,0.4,0.3,0.5,0.6c1.4,3.8,2.7,7.6,4.1,11.4c0.5,1.3,1,2.6,1.4,3.9c0.3,0.9,0.1,1-1.2,1.5
		c-0.7,0.2-0.8-0.2-1-0.7c-1.7-5-3.5-9.9-5.2-14.9C141,128.1,141.4,127.4,142.8,127.4z M142.7,127.8c-0.9,0-1.2,0.5-0.9,1.4
		c1.7,4.8,3.3,9.6,5,14.5c0.2,0.7,0.5,0.8,1.2,0.6c0.9-0.3,0.6-0.9,0.4-1.4c-0.8-2.2-1.6-4.3-2.4-6.4c-0.9-2.6-1.9-5.2-2.8-7.7
		C143,128.3,142.8,128,142.7,127.8z"/>
	<path class="st1" d="M119.5,102.6c-0.9,0.6-1.6,1.2-2.3,1.6c-0.7,0.4-1.4,0.2-1.9-0.4c-0.5-0.7-0.5-1.7,0.1-2.2
		c0.5-0.5,1.2-0.8,1.9-0.3c0.4,0.2,0.5,0.8,0.9,1C118.5,102.5,119,102.5,119.5,102.6z"/>
	<path class="st1" d="M120.3,148.3c-0.2,0.1-0.5,0.3-0.7,0.4c-0.5,0.2-1,0.3-1.4,0.6c-0.8,0.6-1.7,0.6-2.3-0.1
		c-0.6-0.7-0.5-1.7,0.2-2.2c0.7-0.6,1.6-0.4,2.3,0.3C118.8,147.7,119.5,147.9,120.3,148.3z"/>
	<path class="st1" d="M116.7,134.2c-1.1,0-1.8-0.6-1.9-1.3c-0.1-0.8,0.2-1.4,1-1.8c0.8-0.4,1.6-0.3,2,0.4c0.4,0.5,0.7,0.9,1.4,0.7
		c0.1,0,0.3,0.2,0.3,0.3c0,0.2-0.2,0.4-0.3,0.4c-0.7-0.1-1.1,0.3-1.5,0.8C117.4,134,116.8,134.1,116.7,134.2z M115.3,132.4
		c0.1,0.1,0.3,0.2,0.4,0.4c0.3-0.3,0.5-0.7,0.8-1c-0.1-0.1-0.2-0.2-0.3-0.3C115.9,131.8,115.6,132.1,115.3,132.4z"/>
	<path class="st1" d="M119.5,117.2c-0.7,0.4-1.5,0.9-2.3,1.3c-0.7,0.3-1.3,0.1-1.8-0.5c-0.5-0.6-0.5-1.2,0-1.8
		c0.5-0.6,1.2-0.9,2-0.5C118.1,116.1,118.8,116.7,119.5,117.2z"/>
	<path class="st1" d="M115,157.7c0.5-0.6,0.9-1.2,1.4-1.3c0.5-0.1,1.3,0,1.6,0.3c0.5,0.4,0.8,0.7,1.5,0.7c0.2,0,0.4,0.3,0.6,0.5
		c-0.2,0.2-0.4,0.4-0.6,0.5c-0.5,0.2-1.1,0.4-1.5,0.7c-0.6,0.4-1.2,0.5-1.7,0.1C115.8,158.9,115.5,158.4,115,157.7z"/>
	<path class="st1" d="M132.3,78c-1.3-0.9-2.4-1.6-3.6-2.4c0-0.1,0.1-0.1,0.1-0.2c1,0.7,2.1,1.4,3.3,2.2c1.9-5,3.7-9.8,5.6-14.7
		c0.1,0,0.2,0.1,0.3,0.1C136.2,67.9,134.3,72.8,132.3,78z"/>
	<path class="st1" d="M98.1,97.2c0,0,0.2,0,0.2,0.2c0.3,0.6,0.6,1.2,0.9,1.7c0.3,0.6,0,1.4-0.5,1.8c-0.6,0.4-1.4,0.2-1.8-0.4
		c-0.5-0.6-0.3-1.3,0.2-1.9C97.4,98.3,97.7,97.8,98.1,97.2z"/>
	<path class="st1" d="M135.8,96.6c0.4,0.6,0.7,1.1,1.1,1.6c0.4,0.6,0.4,1.2,0,1.8c-0.5,0.6-1.3,0.7-1.9,0.3c-0.6-0.5-0.7-1-0.4-1.7
		c0.3-0.6,0.6-1.2,0.9-1.8C135.7,96.6,135.9,96.6,135.8,96.6z"/>
	<path class="st1" d="M116.5,90.8c-0.4-0.4-1-0.8-1.2-1.3c-0.3-0.7,0.1-1.4,0.8-1.7c0.6-0.3,1.2-0.3,1.7,0.3
		c0.3,0.3,0.8,0.4,1.2,0.7c0.2,0.1,0.4,0.3,0.6,0.5c-0.2,0.1-0.4,0.3-0.6,0.4c-0.5,0.2-1,0.5-1.5,0.7
		C117.2,90.4,117,90.6,116.5,90.8z"/>
	<path class="st4" d="M86.6,144.9c-0.9,0-1.5-0.6-1.2-1.2c1.7-4.8,3.5-9.6,5.3-14.5c0.1-0.4,0.1-1.1,0.9-0.8c0.6,0.2,0.8,0.4,0.6,1
		c-1.5,4.2-2.9,8.5-4.4,12.7c-0.3,0.8-0.5,1.5-0.8,2.2C86.9,144.6,86.7,144.8,86.6,144.9z"/>
	<path class="st4" d="M142.7,127.8c0.1,0.2,0.3,0.5,0.5,0.8c1,2.6,1.9,5.2,2.8,7.7c0.8,2.1,1.6,4.3,2.4,6.4c0.2,0.5,0.5,1.1-0.4,1.4
		c-0.7,0.3-0.9,0.1-1.2-0.6c-1.6-4.8-3.3-9.6-5-14.5C141.5,128.3,141.8,127.8,142.7,127.8z"/>
	<path class="st1" d="M115.3,132.4c0.3-0.3,0.6-0.6,0.9-0.9c0.1,0.1,0.2,0.2,0.3,0.3c-0.3,0.3-0.5,0.7-0.8,1
		C115.5,132.7,115.4,132.6,115.3,132.4z"/>
</g>
</svg>
