<?xml version="1.0" encoding="utf-8"?>
<!-- Generator: Adobe Illustrator 24.1.1, SVG Export Plug-In . SVG Version: 6.00 Build 0)  -->
<svg version="1.1" id="Capa_1" xmlns="http://www.w3.org/2000/svg" xmlns:xlink="http://www.w3.org/1999/xlink" x="0px" y="0px"
	 viewBox="0 0 229 228" style="enable-background:new 0 0 229 228;" xml:space="preserve">
<style type="text/css">
	.st0{fill:#FFFFFF;}
	.st1{fill:#27B2AC;}
</style>
<circle class="st0" cx="114.9" cy="114.8" r="112.6"/>
<g>
	<path class="st1" d="M121.5,190.6c0-41.3,0-82.5,0-124.3c1.7,2.2,3.1,4,4.5,5.8c1.5,1.9,2.1,2,3.4,0.1c3.7-5.6,7.4-11.3,10.9-17
		c1.7-2.9,2.8-6.1,2.3-9.9c9.4,2.1,18.2,4.7,26.2,10c-2,6.5-3.5,13.1-6,19.4c-4.8,12.2-5.3,24.9-4.9,37.7
		c0.7,24.4,1.5,48.8,2.3,73.2c0,0.7,0.1,1.4,0,2.1c-0.2,1.8-1.4,3.1-3.2,3.1c-11.6,0-23.2,0-34.9,0
		C121.9,190.8,121.8,190.7,121.5,190.6z"/>
	<path class="st1" d="M61.8,55.3c7.9-5.3,16.7-7.9,25.7-10c0.4,2.1,0.5,4.2,1.1,6.1c2.7,7.9,7.6,14.6,12.7,21.1c1.1,1.3,2,1.2,3-0.1
		c1.4-1.9,2.9-3.8,4.6-6c0,41.6,0,82.9,0,124.3c-0.7,0-1.4,0.1-2.1,0.1c-10.5,0-20.9,0-31.4,0c-4.3,0-5.2-0.9-5.1-5.1
		c0.6-20.2,1.4-40.4,1.9-60.6c0.3-9.6,0.1-19.2,0.2-28.8c0.1-7-2.2-13.4-4.2-19.9C66.1,69.4,64,62.5,61.8,55.3z"/>
	<path class="st1" d="M61.4,168.9c-7-1.3-13.7-2.6-20.7-3.9c4.6-35.7,8.5-71.4,18.9-105.9c0.2,0,0.4,0,0.6,0
		c0.4,1.2,0.7,2.3,1.1,3.5c0.4,1.2,0.8,2.5,1.2,3.7c2,6.4,4.1,12.8,5.9,19.3c0.9,3.2,1.5,6.5,1.5,9.8c0.2,9.8-0.2,19.6,0,29.4
		c0.2,10.9-3.3,21.1-5.5,31.5C63.5,160.4,62.4,164.5,61.4,168.9z"/>
	<path class="st1" d="M170.8,58.9c1.6,5.7,3.3,11.4,4.7,17.2c5.2,22.3,8.6,44.8,11.5,67.5c0.9,7,1.8,14,2.7,21.3
		c-6.9,1.3-13.6,2.6-20.6,4c-0.8-3.3-1.6-6.4-2.3-9.6c-1.7-7.3-3.6-14.6-5-22c-0.8-4.4-1-8.9-1.1-13.3c-0.2-8.4-0.2-16.9-0.3-25.3
		c0-6,1.1-11.7,2.9-17.4c2.3-7,4.4-14,6.5-21c0.1-0.4,0.3-0.8,0.5-1.3C170.4,59,170.6,58.9,170.8,58.9z"/>
	<path class="st1" d="M119,190.7c-2.6,0-4.9,0-7.5,0c0-0.7-0.1-1.4-0.1-2.1c0-41.2,0-82.3-0.1-123.5c0-3.2,2.5-4.5,3.7-7.2
		c1.9,2.8,4,4.6,4,8.3C119,106.8,119,147.4,119,188C119,188.8,119,189.6,119,190.7z M115.1,94.3c-0.5,0.8-1,1.3-1,1.8
		c0,0.4,0.9,1,1.1,0.9c0.5-0.2,1-0.8,1.1-1.3C116.4,95.5,115.7,95,115.1,94.3z M115.2,108c-0.5,0.9-1.1,1.4-1.1,1.8
		c0,0.3,0.7,1,1.1,1c0.4,0,1.1-0.6,1.1-1C116.3,109.3,115.8,108.8,115.2,108z M116.9,151c-0.7-0.6-1.1-1.3-1.5-1.2
		c-0.5,0.1-1.1,0.6-1.3,1c-0.1,0.3,0.6,1.1,0.9,1.1C115.5,152,116,151.5,116.9,151z M115.2,166.2c0.5-0.7,1.2-1.2,1.1-1.5
		c-0.1-0.5-0.7-0.9-1.1-1.3c-0.4,0.4-1,0.8-1.1,1.3C114.1,165.1,114.7,165.5,115.2,166.2z M116.9,137.1c-0.8-0.5-1.3-1.1-1.7-1.1
		c-0.4,0-1.1,0.7-1,1c0.1,0.5,0.6,1.2,1.1,1.2C115.6,138.4,116.1,137.7,116.9,137.1z M115.3,121.7c-0.6,0.8-1.1,1.3-1.2,1.8
		c0,0.4,0.6,0.8,1,1.2c0.4-0.4,1.1-0.7,1.2-1.1C116.4,123.1,115.8,122.5,115.3,121.7z M115.2,70.3c0.6-0.8,1.1-1.3,1.2-1.8
		c0-0.4-0.6-0.8-1-1.2c-0.4,0.4-1.1,0.7-1.2,1.2C114.1,68.9,114.7,69.4,115.2,70.3z M116.9,82.1c-0.8-0.5-1.3-1-1.8-0.9
		c-0.4,0-1,0.8-0.9,1.1c0.1,0.5,0.7,1.1,1.2,1.1C115.7,83.4,116.1,82.7,116.9,82.1z M115.1,176.6c-0.5,0.9-1.1,1.4-1,1.9
		c0.1,0.4,0.8,0.9,1.3,1c0.2,0,0.9-0.8,0.9-1.1C116.3,177.8,115.7,177.4,115.1,176.6z"/>
	<path class="st1" d="M190,167.4c0.5,5.2,0.9,10.1,1.4,15.1c0.1,1.2-0.6,1.9-1.8,2.1c-4.3,0.8-8.7,1.7-13,2.4
		c-1.7,0.3-3.2-0.3-3.7-2.1c-1.1-4.4-2.2-8.9-3.3-13.7C176.4,170,183,168.8,190,167.4z M180.1,178.3c-0.1-1.4-0.9-2.4-2.4-2.4
		c-1.5,0-2.4,0.8-2.5,2.4c0,1.6,0.9,2.4,2.4,2.5C178.9,181,180.1,179.7,180.1,178.3z"/>
	<path class="st1" d="M102.7,70.3c-4.5-5.8-8.6-11.5-11.1-18.1c-0.8-2.1-1.1-4.7-1-7c0.2-3.4,2.6-5.3,5.9-6.4
		c2.2,8.9,6.9,15.6,16.4,18.2C109.5,61.5,106.2,65.8,102.7,70.3z"/>
	<path class="st1" d="M40.5,167.4c6.9,1.3,13.6,2.6,20.4,3.9c-1.1,4.7-2.1,9.2-3.3,13.7c-0.5,1.8-2,2.4-3.7,2.1
		c-4.3-0.7-8.7-1.6-13-2.4c-1.3-0.2-2-1.1-1.8-2.3C39.5,177.5,40,172.6,40.5,167.4z M52.8,175.9c-1.4,0.2-2.4,0.9-2.4,2.5
		c0,1.5,1,2.5,2.5,2.5c1.5,0,2.4-0.9,2.4-2.5C55.2,176.8,54.3,176.1,52.8,175.9z"/>
	<path class="st1" d="M133.9,38.9c4.7,1.3,7.4,5.4,6,9.9c-1.3,3.9-3.2,7.6-5.2,11.2c-2,3.5-4.4,6.7-6.8,10.3
		c-3.5-4.6-6.8-8.8-10.2-13.3C126.9,54.4,131.7,47.9,133.9,38.9z"/>
	<path class="st1" d="M128.4,46.2c-3.2,5.1-7.5,8.4-13.2,8.3c-5.6-0.1-9.9-3.3-13-8.3C110.9,46.2,119.5,46.2,128.4,46.2z"/>
	<path class="st1" d="M99,38.7c10.9,0,21.5,0,32.4,0c-0.5,1.5-0.8,2.8-1.4,4.1c-0.2,0.4-0.9,0.7-1.4,0.7c-8.9,0-17.9,0-26.8,0
		c-0.5,0-1.2-0.4-1.5-0.9C99.8,41.5,99.5,40.2,99,38.7z"/>
	<path class="st0" d="M115.1,94.3c0.6,0.7,1.3,1.1,1.2,1.5c-0.1,0.5-0.6,1.1-1.1,1.3c-0.2,0.1-1.1-0.6-1.1-0.9
		C114.1,95.7,114.6,95.2,115.1,94.3z"/>
	<path class="st0" d="M115.2,108c0.6,0.9,1.1,1.4,1.1,1.8c0,0.3-0.7,1-1.1,1c-0.4,0-1.1-0.6-1.1-1
		C114.1,109.3,114.7,108.8,115.2,108z"/>
	<path class="st0" d="M116.9,151c-0.8,0.5-1.3,1-1.8,1c-0.4,0-1-0.9-0.9-1.1c0.2-0.5,0.8-1,1.3-1C115.7,149.8,116.2,150.4,116.9,151
		z"/>
	<path class="st0" d="M115.2,166.2c-0.5-0.7-1.2-1.2-1.1-1.5c0.1-0.5,0.7-0.9,1.1-1.3c0.4,0.4,1,0.8,1.1,1.3
		C116.4,165.1,115.8,165.5,115.2,166.2z"/>
	<path class="st0" d="M116.9,137.1c-0.8,0.6-1.3,1.2-1.7,1.2c-0.4,0-1-0.8-1.1-1.2c-0.1-0.3,0.7-1,1-1
		C115.6,136.1,116.1,136.6,116.9,137.1z"/>
	<path class="st0" d="M115.3,121.7c0.5,0.9,1.1,1.4,1,1.8c-0.1,0.4-0.8,0.8-1.2,1.1c-0.3-0.4-1-0.8-1-1.2
		C114.2,123,114.7,122.5,115.3,121.7z"/>
	<path class="st0" d="M115.2,70.3c-0.5-0.9-1.1-1.4-1-1.8c0.1-0.4,0.8-0.8,1.2-1.2c0.3,0.4,1,0.8,1,1.2
		C116.3,69,115.7,69.5,115.2,70.3z"/>
	<path class="st0" d="M116.9,82.1c-0.7,0.6-1.2,1.3-1.6,1.3c-0.4,0-1-0.7-1.2-1.1c-0.1-0.3,0.6-1.1,0.9-1.1
		C115.5,81.1,116,81.6,116.9,82.1z"/>
	<path class="st0" d="M115.1,176.6c0.6,0.8,1.2,1.2,1.2,1.7c0,0.4-0.7,1.2-0.9,1.1c-0.5-0.1-1.2-0.6-1.3-1
		C114.1,178,114.6,177.5,115.1,176.6z"/>
	<path class="st0" d="M180.1,178.3c0,1.4-1.3,2.6-2.5,2.5c-1.5-0.1-2.4-1-2.4-2.5c0-1.6,1-2.4,2.5-2.4
		C179.2,176,180,176.9,180.1,178.3z"/>
	<path class="st0" d="M52.8,175.9c1.5,0.2,2.4,0.9,2.4,2.5c0,1.6-0.9,2.5-2.4,2.5c-1.5,0-2.4-0.9-2.5-2.5
		C50.3,176.8,51.3,176.1,52.8,175.9z"/>
	<g>
		<path class="st0" d="M151.1,96c0,3.1,0,6.2,0,9.2c0,3.5-2.4,5.9-5.9,5.9c-3.5,0-6.9,0-10.4,0c-3.4,0-5.8-2.3-5.8-5.7
			c-0.1-6.4,0-12.8,0-19.2c0-1.8,1.1-2.9,2.9-2.9c5.4,0,10.9,0,16.3,0c1.9,0,2.9,1,2.9,3C151.1,89.5,151.1,92.8,151.1,96z
			 M130.8,93.7C130.9,93.5,130.8,93.5,130.8,93.7c0,3.8,0,7.6,0,11.5c0,2.6,1.5,4,4.1,4c3.4,0,6.8,0,10.3,0c2.7,0,4.2-1.5,4.2-4.2
			c0-3.6,0-7.1,0-10.7c0-0.3-0.1-0.7-0.1-0.6C143,94.8,137,94.7,130.8,93.7z M140.2,85.1c-2.1,0-4.1,0-6.2,0c-3.4,0-3.2-0.2-3.2,3.2
			c0,2.8,1.4,4.3,4.3,4.3c3.2,0,6.4,0,9.7,0c3.2,0,4.6-1.4,4.6-4.6c0-0.4,0-0.9,0-1.3c0.1-1.2-0.5-1.6-1.6-1.6
			C145.2,85.2,142.7,85.1,140.2,85.1z"/>
		<path class="st0" d="M140,91c-0.4-0.5-0.9-0.8-0.8-1.1c0.1-0.4,0.5-0.7,0.8-1c0.3,0.3,0.8,0.6,0.8,0.9
			C140.9,90.1,140.4,90.4,140,91z"/>
	</g>
	<g>
		<path class="st0" d="M151.1,149.6c0,3.1,0,6.2,0,9.2c0,3.5-2.4,5.9-5.9,5.9c-3.5,0-6.9,0-10.4,0c-3.4,0-5.8-2.3-5.8-5.7
			c-0.1-6.4,0-12.8,0-19.2c0-1.8,1.1-2.9,2.9-2.9c5.4,0,10.9,0,16.3,0c1.9,0,2.9,1,2.9,3C151.1,143.2,151.1,146.4,151.1,149.6z
			 M130.8,147.3C130.9,147.1,130.8,147.2,130.8,147.3c0,3.8,0,7.6,0,11.5c0,2.6,1.5,4,4.1,4c3.4,0,6.8,0,10.3,0
			c2.7,0,4.2-1.5,4.2-4.2c0-3.6,0-7.1,0-10.7c0-0.3-0.1-0.7-0.1-0.6C143,148.4,137,148.4,130.8,147.3z M140.2,138.7
			c-2.1,0-4.1,0-6.2,0c-3.4,0-3.2-0.2-3.2,3.2c0,2.8,1.4,4.3,4.3,4.3c3.2,0,6.4,0,9.7,0c3.2,0,4.6-1.4,4.6-4.6c0-0.4,0-0.9,0-1.3
			c0.1-1.2-0.5-1.6-1.6-1.6C145.2,138.8,142.7,138.7,140.2,138.7z"/>
		<path class="st0" d="M140,144.6c-0.4-0.5-0.9-0.8-0.8-1.1c0.1-0.4,0.5-0.7,0.8-1c0.3,0.3,0.8,0.6,0.8,0.9
			C140.9,143.7,140.4,144.1,140,144.6z"/>
	</g>
	<g>
		<rect x="87.8" y="163.7" class="st0" width="0.8" height="26.6"/>
		<rect x="89.5" y="163.7" class="st0" width="0.8" height="26.6"/>
		<rect x="91.1" y="163.7" class="st0" width="0.8" height="26.6"/>
	</g>
	<g>
		<rect x="138.4" y="110.6" class="st0" width="0.8" height="26.6"/>
		<rect x="140" y="110.6" class="st0" width="0.8" height="26.6"/>
		<rect x="141.6" y="110.6" class="st0" width="0.8" height="26.6"/>
	</g>
	<g>
		<rect x="138.9" y="57" class="st0" width="0.8" height="26.6"/>
		<rect x="140.5" y="57" class="st0" width="0.8" height="26.6"/>
		<rect x="142.1" y="57" class="st0" width="0.8" height="26.6"/>
	</g>
	<g>
		<rect x="138.9" y="163.2" class="st0" width="0.8" height="26.6"/>
		<rect x="140.5" y="163.2" class="st0" width="0.8" height="26.6"/>
		<rect x="142.1" y="163.2" class="st0" width="0.8" height="26.6"/>
	</g>
	<g>
		<rect x="87.8" y="110.1" class="st0" width="0.8" height="26.6"/>
		<rect x="89.5" y="110.1" class="st0" width="0.8" height="26.6"/>
		<rect x="91.1" y="110.1" class="st0" width="0.8" height="26.6"/>
	</g>
	<g>
		<rect x="88.4" y="57" class="st0" width="0.8" height="26.6"/>
		<rect x="90" y="57" class="st0" width="0.8" height="26.6"/>
		<rect x="91.6" y="57" class="st0" width="0.8" height="26.6"/>
	</g>
	<g>
		<path class="st0" d="M101.6,96c0,3.1,0,6.2,0,9.2c0,3.5-2.4,5.9-5.9,5.9c-3.5,0-6.9,0-10.4,0c-3.4,0-5.8-2.3-5.8-5.7
			c-0.1-6.4,0-12.8,0-19.2c0-1.8,1.1-2.9,2.9-2.9c5.4,0,10.9,0,16.3,0c1.9,0,2.9,1,2.9,3C101.7,89.5,101.6,92.8,101.6,96z
			 M81.3,93.7C81.4,93.5,81.3,93.5,81.3,93.7c0,3.8,0,7.6,0,11.5c0,2.6,1.5,4,4.1,4c3.4,0,6.8,0,10.3,0c2.7,0,4.2-1.5,4.2-4.2
			c0-3.6,0-7.1,0-10.7c0-0.3-0.1-0.7-0.1-0.6C93.6,94.8,87.6,94.7,81.3,93.7z M90.7,85.1c-2.1,0-4.1,0-6.2,0c-3.4,0-3.2-0.2-3.2,3.2
			c0,2.8,1.4,4.3,4.3,4.3c3.2,0,6.4,0,9.7,0c3.2,0,4.6-1.4,4.6-4.6c0-0.4,0-0.9,0-1.3c0.1-1.2-0.5-1.6-1.6-1.6
			C95.7,85.2,93.2,85.1,90.7,85.1z"/>
		<path class="st0" d="M90.6,91c-0.4-0.5-0.9-0.8-0.8-1.1c0.1-0.4,0.5-0.7,0.8-1c0.3,0.3,0.8,0.6,0.8,0.9
			C91.4,90.1,90.9,90.4,90.6,91z"/>
	</g>
	<g>
		<path class="st0" d="M101.6,148.6c0,3.1,0,6.2,0,9.2c0,3.5-2.4,5.9-5.9,5.9c-3.5,0-6.9,0-10.4,0c-3.4,0-5.8-2.3-5.8-5.7
			c-0.1-6.4,0-12.8,0-19.2c0-1.8,1.1-2.9,2.9-2.9c5.4,0,10.9,0,16.3,0c1.9,0,2.9,1,2.9,3C101.7,142.1,101.6,145.3,101.6,148.6z
			 M81.3,146.3C81.4,146,81.3,146.1,81.3,146.3c0,3.8,0,7.6,0,11.5c0,2.6,1.5,4,4.1,4c3.4,0,6.8,0,10.3,0c2.7,0,4.2-1.5,4.2-4.2
			c0-3.6,0-7.1,0-10.7c0-0.3-0.1-0.7-0.1-0.6C93.6,147.4,87.6,147.3,81.3,146.3z M90.7,137.7c-2.1,0-4.1,0-6.2,0
			c-3.4,0-3.2-0.2-3.2,3.2c0,2.8,1.4,4.3,4.3,4.3c3.2,0,6.4,0,9.7,0c3.2,0,4.6-1.4,4.6-4.6c0-0.4,0-0.9,0-1.3
			c0.1-1.2-0.5-1.6-1.6-1.6C95.7,137.7,93.2,137.7,90.7,137.7z"/>
		<path class="st0" d="M90.6,143.5c-0.4-0.5-0.9-0.8-0.8-1.1c0.1-0.4,0.5-0.7,0.8-1c0.3,0.3,0.8,0.6,0.8,0.9
			C91.4,142.7,90.9,143,90.6,143.5z"/>
	</g>
</g>
</svg>
