<?xml version="1.0" encoding="utf-8"?>
<!-- Generator: Adobe Illustrator 24.1.1, SVG Export Plug-In . SVG Version: 6.00 Build 0)  -->
<svg version="1.1" id="Capa_1" xmlns="http://www.w3.org/2000/svg" xmlns:xlink="http://www.w3.org/1999/xlink" x="0px" y="0px"
	 viewBox="0 0 225.6 240.4" style="enable-background:new 0 0 225.6 240.4;" xml:space="preserve">
<style type="text/css">
	.st0{fill:#FFFFFF;}
	.st1{fill:#2AB1AC;}
	.st2{fill:#DADADA;}
	.st3{fill:#2CA79F;}
</style>
<circle class="st0" cx="109.9" cy="115.4" r="79"/>
<g>
	<path class="st1" d="M73,70.8c0.9,3.4,1.7,6.7,2.6,10.1c0.1,0,0.2,0,0.2,0c-0.2-4.2-1.4-8.3-1.9-12.5c1.1,5.5,2.3,11,3.5,16.6
		c-0.4,0.1-0.7,0.1-1,0.2c0,0.1,0,0.2,0,0.3c9.4,0.3,18.9,0.5,28.3,0.8c0,0.1,0,0.3,0,0.4c-9.5-0.2-19-0.4-28.5-0.7
		c0,0.1,0,0.3,0,0.4c0.7,0,1.4,0,2.2,0c1.3,0,1.3,0,1.4,1.4c0,1.7,0.1,3.4,0.2,5.1c0,0.3,0.3,0.6,0.4,0.9c0.1,0.4,0.3,0.7,0.3,1.1
		c0,2.8,0.1,5.6,0.1,8.3c0,0.8,0.3,1.2,1,1.4c0.9,0.3,1.8,0.7,2.7,1c0.6,0.2,0.9,0.5,0.9,1.2c0.1,2.6,0.2,5.2,0.3,7.8
		c0.3,8.2,0.5,16.5,0.8,24.7c0.1,2.3,0.2,4.6,0.3,7c0,0.6-0.2,0.9-0.8,0.9c-2.7,0-5.4,0.1-8.2,0.2c-0.5,0-0.8-0.1-0.9-0.7
		c-0.2-5-0.7-10.1-0.7-15.1c0.1-10,0.4-20,0.6-30c0.1-3.6,0-7.1,0-10.7c0-0.4-0.1-0.8-0.2-1.1c-0.1,0-0.2,0-0.3,0
		c0,0.4-0.1,0.8-0.1,1.1c0.5,6.3-0.3,12.6-1,18.8c-0.4,3.8-1.1,7.6-1.7,11.3c-0.4,2.6,0,5.2,0.3,7.8c0.8,6.4,1.7,12.8,2.4,19.3
		c0.2,2,0.2,4,0.3,6c0,0.9,0.3,1.4,1.2,1.5c0.6,0.1,0.8,0.3,0.6,0.9c-0.1,0.2-0.1,0.5-0.1,0.7c0.2,2.4-1,4.3-2.2,6.2
		c-0.4,0.6-0.9,0.9-1.6,0.9c-2.3,0.1-4.6,0.3-6.8,0.5c-0.6,0.1-1.1,0.3-1.6,0.4c0,0.1,0,0.3,0.1,0.4c3.4,0,6.8,0,10.2,0
		c0,0.1,0,0.2,0,0.4c-4.9,0-9.9,0-14.9,0c0-0.2,0-0.5,0-0.9c1,0.3,1.1-0.2,1-0.9c-0.9-7.5-1.7-15-2.5-22.5c-0.3-2.7-0.6-5.4-0.7-8
		c0-3.6,0.3-7.3,0.4-10.9c0.1-2.4,0.2-4.8,0.2-7.2c0.1-5.7,1-11.3,1.8-16.9c0.6-4.5,2-8.9,3.3-13.2c0.8-2.8,1.9-5.6,3.2-8.3
		c0.9-1.8,2.3-3.3,3.5-4.9c0.4-0.5,0.8-1,1.2-1.6C72.8,70.7,72.9,70.8,73,70.8z M84.7,122.7c0.1-0.9-0.7-0.8-1.2-1
		c-0.7-0.3-0.8,0.2-1,0.7c-1.8,5-3.6,10.1-5.4,15.1c-0.3,0.9-0.3,0.9,1.1,1.5c0.8,0.3,0.9-0.1,1.1-0.7c1.2-3.5,2.4-7,3.6-10.6
		C83.5,126,84.1,124.4,84.7,122.7z"/>
	<path class="st1" d="M147.1,165.5c3.5,0,7,0,10.4,0.2c0,0.1,0,0.2,0,0.3c-0.2,0-0.5,0.1-0.7,0.1c-4.7,0-9.4,0-14.1,0
		c-0.4,0-0.9,0-0.8-0.6c0-0.2,0.4-0.5,0.7-0.5c1-0.2,1.3-0.7,0.8-1.5c-0.7-1.4-1.5-2.7-2.3-4c-0.2-0.3-0.4-0.7-0.3-0.9
		c0.4-1.3,0.8-2.7,1.3-4c0.1-0.3,0.3-0.6,0.3-0.9c0.3-3.6,0.6-7.2,0.8-10.9c0.3-6,0.8-12,0.7-18c-0.1-5.9,0.4-11.6,0.6-17.5
		c0.1-2.4-0.1-4.8-0.4-7.2c-0.2-2-0.7-3.9-1.1-5.9c-0.1-0.7-0.1-1.4,0-2.1c0.5-2.4,1.2-4.7,1.6-7.1c0.3-1.9,0.5-3.8,0.6-5.6
		c0.1-3.3,0.3-6.5,1.4-9.6c0.1-0.3,0.2-0.5,0.4-1c0.4,0.5,0.8,0.8,1.1,1.3c1.9,3.3,3.8,6.6,4.9,10.3c1.4,5,2.5,10.1,3.8,15.2
		c1.7,6.5,2.2,13.1,3,19.7c0.4,3.2,0.5,6.5,0.6,9.8c0.2,5.3,0.4,10.6,0.5,15.9c0,2.6-0.2,5.2-0.2,7.9c-0.1,2.3,0,4.5-0.1,6.8
		c-0.1,2.4-0.3,4.9-0.5,7.3c-0.1,0.8-0.5,1.2-1.3,1.3c-2.1,0.2-4.3,0.3-6.4,0.5c-1.6,0.1-3.2,0.4-4.7,0.6
		C147.5,165.3,147.3,165.4,147.1,165.5z"/>
	<path class="st1" d="M119.2,103.3c0-3,0-6,0-9c0.1,0,0.2,0,0.3,0c0,2.7,0,5.3,0,8c0.1,0,0.2,0,0.3,0c0-2.6,0-5.2,0-8
		c1,0.3,1.8,0.6,2.6,1c0.2,0.1,0.3,0.4,0.3,0.6c0.1,2.6,0.2,5.1,0.3,7.7c0,0.1-0.1,0.2-0.1,0.4c-0.9-0.3-1.8-0.7-2.7-1
		c0,0.1-0.1,0.1-0.1,0.2c1,0.4,1.9,0.8,2.9,1.3c0,0.1-0.1,0.2-0.1,0.2c-1.1-0.4-2.3-0.8-3.4-1.3c0,0.1-0.1,0.1-0.1,0.2
		c0.1,0.1,0.1,0.3,0.3,0.4c0.2,0.1,0.4,0.2,0.6,0.3c0.9,0.4,2.2,0.6,2.7,1.3c0.5,0.7,0.2,1.9,0.2,2.8c0.2,6.7,0.4,13.3,0.6,20
		c0.2,5.7,0.3,11.4,0.5,17.1c0,0.2,0.1,0.4,0.1,0.7c0.1,0,0.2,0,0.3,0c-0.4-13.5-0.7-27-1.1-40.6c1.2,0.5,2.3,0.8,3.2,1.3
		c0.9,0.4,1.6,0.5,2.5,0c0.8-0.4,1.7-0.7,2.9-1.1c-0.5,13.6-0.9,26.9-1.3,40.3c0.1,0,0.2,0,0.3,0.1c0.1-0.2,0.1-0.4,0.1-0.7
		c0.2-5.4,0.4-10.7,0.6-16.1c0.2-6.9,0.4-13.8,0.6-20.7c0-0.7,0.1-1.5,0.1-2.2c0-0.7,0.3-1,0.9-1.2c0.9-0.3,1.9-0.8,2.8-1.1
		c0.7-0.2,0.9-0.6,0.9-1.4c0-2.7,0-5.5,0.1-8.2c0-0.5,0.3-0.9,0.5-1.4c0.1-0.2,0.2-0.5,0.2-0.8c0.1-1.7,0.1-3.4,0.1-5.1
		c0-0.6,0.1-1.1,0.8-1c0.6,0.1,1.3-0.4,1.6,0.8c1,4.5,0.4,9,0.5,13.5c0.2,6.1,0.2,12.2,0.4,18.2c0.1,4.1,0.5,8.1,0.8,12.2
		c0.2,3,0.4,6-0.1,9c-0.3,1.9-0.4,3.8-0.5,5.7c-0.1,0.7-0.4,1-1.2,1c-8.3,0-16.6,0.1-24.8,0.2c-0.9,0-1.1-0.3-1.1-1.2
		c0-13,0-26-0.1-39.1c0-6.3-0.1-12.6-0.1-19c0-1.2,0-1.2,1.2-1.2c2.1,0,2.1,0,2.2,2.1c0.1,1.2-0.1,2.4-0.1,3.7c0,0.7,0,1.3,0.8,1.7
		c0.2,0.1,0.4,0.6,0.4,1c0,2.6,0,5.1,0,7.7c0,0.3,0,0.6,0.1,0.9C118.9,103.3,119.1,103.3,119.2,103.3z M134.8,121
		c-1.4,0.1-1.9,0.7-1.5,1.8c1.7,5,3.5,9.9,5.2,14.9c0.2,0.5,0.3,0.9,1,0.7c1.4-0.5,1.6-0.6,1.2-1.5c-0.5-1.3-0.9-2.6-1.4-3.9
		c-1.4-3.8-2.7-7.6-4.1-11.4C135.2,121.3,134.9,121.1,134.8,121z"/>
	<path class="st1" d="M98.2,103.8c-1.1,0.4-2.3,0.9-3.4,1.3c0-0.1-0.1-0.2-0.1-0.3c1-0.4,1.9-0.8,2.9-1.2c0-0.1-0.1-0.2-0.1-0.2
		c-0.9,0.3-1.7,0.7-2.7,1c0-1.4,0-2.6,0-3.8c0-1.4,0.1-2.7,0.2-4.1c0-0.3,0.3-0.7,0.5-0.8c0.7-0.3,1.5-0.6,2.4-0.9c0,2.8,0,5.4,0,8
		c0.1,0,0.2,0,0.3,0c0-2.7,0-5.3,0-8c0.1,0,0.3,0,0.4,0c0,3,0,6.1,0,9.1c0.1,0,0.2,0,0.3,0c0-0.4,0.1-0.7,0.1-1.1c0-2.5,0-4.9,0-7.4
		c0-0.6,0.1-1,0.7-1.3c0.3-0.2,0.5-0.9,0.5-1.3c0.1-1.6,0-3.3,0-4.9c0-0.8,0.3-1.2,1.1-1.1c0.8,0.1,1.7,0.1,2.6,0.1
		c0.7,0,0.9,0.2,0.9,0.9c0.2,2.5,0.4,5.1,0.6,7.6c0,0.1,0.1,0.2,0.3,0.3c0-0.3,0.1-0.6,0.1-0.9c0-2.5,0-5,0-7.4c0-0.7,0.2-1,1-1
		c2,0,3.9,0,5.9,0c0.8,0,1.1,0.2,1,1c0,6.2,0,12.5,0,18.7c0.1,10.2,0.1,20.3,0.2,30.5c0,3.1,0.1,6.1,0.1,9.2c0,0.7-0.2,1-0.9,1
		c-2,0-4,0.1-6,0.1c-0.4,0-0.8-0.1-1.2-0.1c-1-14.2,0-28.3,0.1-42.4c-0.1,0-0.2,0-0.3,0c0,0.5-0.1,0.9-0.1,1.4
		c-0.2,5.2-0.4,10.3-0.5,15.5c-0.1,3.7,0,7.3-0.1,11c0,2.1-0.2,4.3-0.3,6.4c-0.1,2.3-0.1,4.6-0.1,7c0,0.8-0.3,1-1.1,1.1
		c-3.1,0.1-6.1,0.2-9.2,0.3c-0.8,0-0.8-0.5-0.8-1.1c0.1-3.6,0.2-7.2,0.3-10.8c0.3-9.5,0.5-18.9,0.7-28.4c0-0.6,0.2-0.9,0.8-1.1
		c0.8-0.3,1.6-0.6,2.3-0.9c0.2-0.1,0.4-0.3,0.7-0.4C98.3,104,98.3,103.9,98.2,103.8z M111.4,96.2c-0.5-0.1-0.9-0.1-1.3-0.4
		c-0.4-0.2-0.5-0.8-0.9-1c-0.7-0.5-1.3-0.2-1.9,0.3c-0.6,0.6-0.7,1.6-0.1,2.2c0.5,0.6,1.2,0.8,1.9,0.4
		C109.9,97.4,110.6,96.9,111.4,96.2z M112.2,141.9c-0.8-0.4-1.5-0.6-1.9-1c-0.7-0.7-1.6-0.9-2.3-0.3c-0.6,0.6-0.7,1.6-0.2,2.2
		c0.6,0.7,1.4,0.7,2.3,0.1c0.4-0.3,0.9-0.4,1.4-0.6C111.7,142.2,112,142.1,112.2,141.9z M108.6,127.9c0.2-0.1,0.7-0.2,1-0.5
		c0.4-0.5,0.8-0.9,1.5-0.8c0.1,0,0.3-0.2,0.3-0.4c0-0.1-0.2-0.3-0.3-0.3c-0.7,0.2-1-0.2-1.4-0.7c-0.5-0.7-1.2-0.8-2-0.4
		c-0.8,0.4-1.1,0.9-1,1.8C106.8,127.3,107.5,127.8,108.6,127.9z M111.4,110.8c-0.7-0.5-1.3-1.1-2.1-1.5c-0.7-0.4-1.4-0.2-2,0.5
		c-0.5,0.6-0.4,1.3,0,1.8c0.5,0.6,1.1,0.8,1.8,0.5C110,111.7,110.7,111.2,111.4,110.8z"/>
	<path class="st1" d="M93.6,67.2c0.6,1.6,1.2,3.2,1.9,5.1c2.7-2.1,5.2-4.2,7.8-6.2c0.1,0,0.2,0.1,0.3,0.1c-0.1,0.2,0,0.5-0.2,0.7
		c-2.3,1.9-4.6,3.8-7,5.6c-0.1,0.1-0.2,0.1-0.3,0.2c-0.1,0.2-0.2,0.5-0.4,0.8c0.3,0,0.6,0.1,0.8,0c1.5-0.7,3.1-1.4,4.6-2.1
		c0.9-0.4,1.9-0.9,2.8-1.4c0.7-0.4,1.1-0.2,1.5,0.4c0.9,1.4,1.9,2.9,2.8,4.3c0.2,0.3,0.5,0.6,0.8,1c-1.2,1.6-2.4,3.3-3.6,4.9
		c-0.2,0.3-0.4,0.8-0.5,1.2c-0.1,1,0,2,0,3c0,0.5-0.2,0.7-0.8,0.7c-5.6-0.2-11.1-0.3-16.7-0.4c-2.7-0.1-5.4-0.1-8.1-0.1
		c-1.6,0-1.6-0.1-1.9-1.6c-1-5-2.1-9.9-3.1-14.9c-0.1-0.6-0.1-1,0.5-1.3c4.6-2.2,9.2-4.5,13.7-6.7c0.1,0,0.2,0,0.4,0
		c1.6,3.8,3.3,7.5,5.6,10.9c-1.5-4.8-3.8-9.3-5.3-14.2c0.1,0,0.2-0.1,0.3-0.1c0.1,0.3,0.3,0.5,0.4,0.8c1.1,2.8,2.2,5.6,3.3,8.3
		C93.3,66.6,93.5,66.9,93.6,67.2L93.6,67.2z"/>
	<path class="st1" d="M146.2,67c-0.3,0.4-0.6,0.8-0.8,1.3c-1.2,4.4-2.4,8.9-3.6,13.4c-0.1,0.5-0.3,0.9-0.6,1.4
		c-0.4-2.1-0.8-4.1-1.3-6.4c-0.1,0.2-0.2,0.3-0.2,0.3c0.1,2.3,0.2,4.5,0.3,6.8c0,0.9-0.2,1.1-1.1,1c-0.5-0.1-0.9-0.2-1.4-0.2
		c-7.3,0.1-14.7,0.3-22,0.4c-1.4,0-1.4,0-1.4-1.4c0-3,0-6-0.1-9c0-0.6,0.2-0.8,0.7-0.8c1.2,0,2-0.4,2.3-1.6c0.2-0.6,0.6-1.2,1-1.9
		c0.9,0.6,1.7,1.1,2.6,1.7c1.1,0.7,2.2,1.5,3.4,2.2c0.4,0.3,0.9,0.3,1.2-0.2c0.8-1.7,1.7-3.5,2.4-5.2c1-2.4,1.9-4.8,2.9-7.1
		c0.1-0.2,0.1-0.3,0.2-0.5c0.7-1.6,0.9-1.6,2.5-0.8c2.2,1.1,4.5,1.9,6.6,3C142.1,64.2,144.1,65.6,146.2,67L146.2,67z"/>
	<path class="st1" d="M85.8,106.1c0.9,0.4,1.8,0.6,2.6,1c0.9,0.5,1.8,0.4,2.7,0c1-0.4,2-0.8,3-1.2c0,2.2,0,4.2,0,6.2
		c-0.1,4.1-0.2,8.2-0.3,12.3c-0.2,7.2-0.4,14.3-0.6,21.5c0,0.7-0.2,1.1-1,1c-1.4,0-2.9,0.1-4.3,0.1c-0.7,0-0.9-0.2-1-0.9
		c-0.1-3.1-0.2-6.1-0.3-9.2c-0.3-8.6-0.6-17.1-0.9-25.7C85.8,109.6,85.8,107.9,85.8,106.1z"/>
	<path class="st1" d="M141.3,147.1c-0.6,2.2-1.1,4.2-1.8,6.2c-0.3,0.9-1.1,1.3-2.1,1.4c-3.4,0.5-6.9,1.2-10.3,1.6
		c-1.8,0.2-3.6,0-5.5,0c-3.5-0.1-7-0.1-10.4-0.2c-1.6,0-3.1-0.1-4.7-0.2c-0.5,0-0.8-0.2-0.8-0.8c0-2.4,0-4.8,0.1-7.1
		c0-0.7,0.5-0.6,0.9-0.6c2.4,0,4.8,0,7.2,0c8.5-0.1,17-0.2,25.5-0.3C140,147.1,140.5,147.1,141.3,147.1z M107,151.4
		c0.5,0.6,0.8,1.2,1.2,1.5c0.5,0.4,1.1,0.3,1.7-0.1c0.4-0.3,1-0.4,1.5-0.7c0.2-0.1,0.4-0.3,0.6-0.5c-0.2-0.2-0.4-0.5-0.6-0.5
		c-0.7,0-1-0.3-1.5-0.7c-0.4-0.3-1.1-0.5-1.6-0.3C107.9,150.2,107.5,150.8,107,151.4z"/>
	<path class="st1" d="M123.1,49.5c2,2,3.9,3.9,5.8,5.7c0.2,0.2,0.4,0.4,0.6,0.6c1.2,1,1.3,1.1,0.6,2.4c-2.3,4.1-2.9,8.9-5,13.1
		c-0.2,0.4-0.4,0.7-0.6,1.2c-0.3-0.2-0.6-0.4-0.8-0.5c-1.6-1.1-3.3-2.2-4.9-3.3c-0.8-0.6-1.4-0.4-1.8,0.6c-0.4,0.8-0.8,1.7-1.2,2.5
		c-0.1,0.2-0.4,0.4-0.6,0.4c-1.2,0.2-2.4,0.3-3.7,0.4c1.2-2.2,2.6-4.5,3.9-6.9c1.5,1,2.9,2,4.4,2.9c0-0.1,0.1-0.1,0.1-0.2
		c-1.1-0.8-2.2-1.5-3.3-2.3c-1.1-0.7-1-0.7-0.5-1.8C118.4,59.4,120.7,54.5,123.1,49.5z M124.3,71.6c1.9-5.1,3.8-10.1,5.7-15
		c-0.1,0-0.2-0.1-0.3-0.1c-1.9,4.9-3.7,9.8-5.6,14.7c-1.2-0.8-2.2-1.5-3.3-2.2c0,0.1-0.1,0.1-0.1,0.2
		C121.9,69.9,123,70.7,124.3,71.6z"/>
	<path class="st1" d="M98.1,153.6c-6.1,0.2-12.3,0.4-18.4,0.6c-0.2,0-0.3,0-0.5,0c-2.1,0.2-2.1,0.2-2.2-1.9
		c-0.1-1.2-0.1-2.5-0.2-3.8c0-0.7,0.2-1,0.9-1c4.4-0.1,8.8-0.2,13.3-0.4c4.2-0.1,8.3-0.2,12.4-0.3c0.8,0,1.1,0.2,1,1
		c-0.1,1.2-0.1,2.3-0.2,3.5c-0.2,1.5-0.9,2.2-2.5,2.2C100.6,153.6,99.3,153.6,98.1,153.6C98.1,153.6,98.1,153.6,98.1,153.6z"/>
	<path class="st1" d="M109.1,55.8c-3.2,0-6.5,0-9.7,0c-0.6,0-1-0.2-1.2-0.7c-0.5-1.4-1.2-2.8-1.6-4.3c-0.4-1.2,0-1.6,1.2-1.7
		c4.1-0.2,8.3-0.6,12.4-0.7c3.1-0.1,6.2,0.2,9.3,0.3c0,0,0.1,0,0.1,0c2.6,0.3,3.1,1.1,1.9,3.4c-0.4,0.8-0.9,1.7-1.3,2.5
		c-0.3,0.7-0.8,0.9-1.5,0.9c-3.2,0-6.4,0-9.6,0C109.1,55.7,109.1,55.7,109.1,55.8z"/>
	<path class="st1" d="M93.6,67.2c-0.2-0.7-0.4-1.4-0.7-2.1c-1-2.6-2.1-5.1-3-7.7c-0.1-0.3-0.2-0.9,0-1.1c1.8-2,3.7-3.9,5.6-5.8
		c0.1-0.1,0.2-0.1,0.3-0.2c2,5.4,4.9,10.2,7.3,15.4c-2.4,1.9-4.9,3.9-7.5,6c-0.5-1.2-0.9-2.3-1.4-3.4C94.1,68,93.8,67.6,93.6,67.2
		C93.6,67.2,93.6,67.2,93.6,67.2z"/>
	<path class="st1" d="M89.9,86.7c2.7,0,5.4,0,8.1,0c0.7,0,0.9,0.3,0.9,0.9c0,1.6,0,3.1,0,4.7c0,0.3-0.3,0.8-0.6,0.9
		c-2.6,1-5.2,1.9-7.8,2.8c-0.3,0.1-0.7,0-1-0.1c-2.5-1.1-5.1-2.2-7.6-3.4c-0.4-0.2-0.8-0.7-0.8-1.1C81,90,81,88.6,81,87.2
		c0-0.7,0.3-0.8,0.9-0.8c2.7,0,5.4,0,8,0C89.9,86.5,89.9,86.6,89.9,86.7z M90,90.9c-0.4,0.6-0.6,1.1-1,1.4c-0.5,0.6-0.6,1.3-0.2,1.9
		c0.4,0.6,1.2,0.7,1.8,0.4c0.5-0.4,0.8-1.2,0.5-1.8c-0.3-0.6-0.6-1.2-0.9-1.7C90.2,90.9,90,90.8,90,90.9z"/>
	<path class="st1" d="M117.5,60.5c-2.4,5.3-5.1,10.1-8.2,15c-0.5-0.9-0.9-1.7-1.3-2.4c-1.5-2.6-3.1-5.2-4.6-7.8
		c-0.9-1.5-1.6-3.1-2.5-4.7C106.4,60.5,111.8,60.5,117.5,60.5z"/>
	<path class="st1" d="M127.8,86.2c2.6,0,5.3,0,7.9,0c0.8,0,1.1,0.2,1,1c-0.1,1.2-0.1,2.3,0,3.5c0,0.6-0.2,1-0.8,1.3
		c-2.5,1.1-5.1,2.3-7.6,3.4c-0.3,0.1-0.8,0.2-1.1,0.1c-2.6-0.9-5.1-1.8-7.7-2.7c-0.5-0.2-0.8-0.5-0.7-1.1c0-1.4,0-2.9,0-4.3
		c0-0.7,0.2-0.9,0.9-0.9c2.7,0,5.4,0,8.2,0C127.8,86.3,127.8,86.2,127.8,86.2z M127.8,90.2c0,0-0.1,0-0.2,0.2
		c-0.3,0.6-0.7,1.2-0.9,1.8c-0.3,0.7-0.2,1.3,0.4,1.7c0.6,0.5,1.4,0.4,1.9-0.3c0.4-0.6,0.4-1.2,0-1.8
		C128.5,91.4,128.2,90.8,127.8,90.2z"/>
	<path class="st1" d="M142.3,171.8c-0.1-1.5-0.3-3-0.4-4.4c0-0.5,0.1-0.8,0.7-0.8c4.8,0,9.6,0,14.4,0c0.1,0,0.2,0.1,0.5,0.1
		c-0.5,1.9-1,3.8-1.6,5.7c-0.1,0.2-0.6,0.3-0.9,0.3c-2.8-0.2-5.6-0.4-8.4-0.6C145.2,171.9,143.8,171.9,142.3,171.8z"/>
	<path class="st1" d="M63.3,172.3c-0.7,0.2-1,0-1.2-0.7c-0.2-1.4-0.5-2.8-0.8-4.1c-0.2-0.8,0.1-1,0.8-1c3.6,0,7.2,0,10.8-0.1
		c0.9,0,1.8,0,2.6-0.1c0.6,0,0.8,0.2,0.8,0.8c0,1.1,0.1,2.3,0.2,3.4c0,0.5-0.1,0.7-0.6,0.8c-1.8,0.1-3.6,0.3-5.5,0.4
		C68,171.9,65.6,172.1,63.3,172.3z"/>
	<path class="st1" d="M85.5,95.8c1.1,0.4,2.2,0.9,3.3,1.3c0.8,0.4,1.6,0.5,2.4,0.1c1-0.5,2-0.7,3.2-1.2c0,0.5,0.1,0.8,0.1,1.1
		c0,2.2-0.1,4.3-0.2,6.5c0,0.7-0.3,1.1-0.9,1.3c-0.1,0-0.1,0-0.2,0.1c-3.3,1.4-3.9,1.4-7.1-0.2c-0.2-0.1-0.5-0.4-0.5-0.6
		c-0.1-2.7-0.2-5.3-0.2-8C85.4,96.1,85.5,96,85.5,95.8z"/>
	<path class="st1" d="M123.5,95.5c1,0.4,2.1,0.7,3.2,1.2c0.7,0.3,1.3,0.3,2,0c1.2-0.5,2.4-1,3.6-1.5c0.1,0.2,0.1,0.3,0.1,0.4
		c-0.1,2.6-0.1,5.1-0.3,7.7c0,0.3-0.4,0.6-0.6,0.9c-0.1,0.1-0.2,0.1-0.3,0.1c-3.5,1.4-3.5,1.4-7,0c-0.3-0.1-0.7-0.4-0.7-0.7
		C123.4,101,123.5,98.3,123.5,95.5z"/>
	<path class="st1" d="M98.7,56.1c7,0,13.8,0,20.6,0c-0.5,1.2-1,2.5-1.6,3.7c-0.1,0.3-0.7,0.5-1,0.5c-5.2-0.1-10.4-0.2-15.6-0.3
		c-0.3,0-0.6-0.3-0.7-0.5C99.8,58.5,99.4,57.4,98.7,56.1z"/>
	<path class="st1" d="M113.6,74.6c0,1.3,0,2.6,0,3.9c0,1.8,0,3.7,0,5.5c0,0.4,0,0.9-0.6,0.9c-2.3,0-4.6,0-7,0
		c0.1-0.7,0.3-1.3,0.2-1.9c-0.2-1.9,1-3,2.2-4.2c1.6-1.5,3.3-2.9,4.9-4.4C113.4,74.5,113.5,74.5,113.6,74.6z M108.4,84.5
		c0.5-0.3,0.8-0.4,1-0.5c0.5-0.2,1-0.4,1.5-0.7c0.2-0.1,0.4-0.3,0.6-0.4c-0.2-0.2-0.4-0.3-0.6-0.5c-0.4-0.2-0.9-0.4-1.2-0.7
		c-0.5-0.6-1.1-0.6-1.7-0.3c-0.7,0.4-1.1,1-0.8,1.7C107.5,83.7,108,84,108.4,84.5z"/>
	<path class="st1" d="M82,94.3c0.8,0.3,1.7,0.7,2.5,1.1c0.2,0.1,0.4,0.6,0.4,0.9c0.1,2,0.1,4,0.2,6c0,0.6,0,1.2,0,2
		c-1-0.4-2-0.7-2.9-1.1c-0.2-0.1-0.4-0.4-0.4-0.6c0-2.7,0-5.4,0-8C81.8,94.5,81.9,94.4,82,94.3z"/>
	<path class="st1" d="M132.7,103.7c0-0.5,0-0.9,0-1.4c0.1-2.2,0.2-4.4,0.2-6.6c0-0.6,0.2-1,0.8-1.2c0.7-0.2,1.4-0.6,2.2-0.9
		c0,0.4,0.1,0.6,0.1,0.8c0,2.4,0,4.8,0,7.1c0,0.7-0.2,1-0.8,1.2C134.4,103.1,133.6,103.4,132.7,103.7z"/>
	<path class="st2" d="M118.4,86.4c0,0.3,0.1,0.6,0.1,0.9c0,1.5,0,3,0,4.5c0,0.6,0.2,0.9,0.8,1.1c2.6,0.9,5.1,1.9,7.7,2.8
		c0.5,0.2,1.1,0.1,1.6-0.1c2.5-1.1,5-2.2,7.5-3.3c0.7-0.3,1-0.7,1-1.5c0-1.3,0-2.5,0-3.8c0-0.3,0.1-0.6,0.1-0.8c0.1,0,0.2,0,0.3,0
		c0,0.3,0,0.7,0,1c0,1.5-0.1,2.9,0,4.4c0,0.6-0.2,0.9-0.8,1.2c-2.7,1.1-5.5,2.3-8.2,3.4c-0.4,0.2-1,0.2-1.5,0
		c-2.7-0.9-5.4-1.9-8.1-2.9c-0.5-0.2-0.9-0.4-0.9-1c0-1.8,0-3.6,0.1-5.4c0-0.2,0.1-0.3,0.1-0.5C118.3,86.4,118.3,86.4,118.4,86.4z"
		/>
	<path class="st2" d="M99.7,86.9c0,0.4,0,0.8,0,1.2c0,1.5,0,3.1,0.1,4.6c0,0.6-0.2,0.9-0.7,1.1c-2.8,1-5.7,2.1-8.5,3.1
		c-0.4,0.1-0.9,0.1-1.2-0.1c-2.8-1.1-5.5-2.3-8.3-3.5c-0.3-0.1-0.7-0.5-0.7-0.8c-0.1-2,0-3.9,0-5.9c0,0,0.1-0.1,0.2-0.3
		c0.1,0.3,0.1,0.6,0.1,0.8c0,1.5,0.1,2.9,0.1,4.4c0,0.6,0.2,0.9,0.7,1.1c2.6,1.1,5.2,2.3,7.8,3.4c0.5,0.2,1.1,0.2,1.6,0
		c2.5-0.8,4.9-1.8,7.4-2.7c0.8-0.3,1.1-0.7,1-1.5c0-1.4,0-2.8,0-4.2c0-0.3,0-0.6,0.1-1C99.5,86.9,99.6,86.9,99.7,86.9z"/>
	<path class="st1" d="M146.2,67c0.5,1.5-0.3,2.7-0.6,4.1c-1.1,4.4-2.2,8.7-3.3,13c-0.1,0.4-0.1,0.8-0.2,1.5
		c-0.4-0.8-0.7-1.4-0.4-2.2c1.4-5.1,2.8-10.2,4.2-15.4C146,67.6,146.1,67.3,146.2,67C146.2,67,146.2,67,146.2,67z"/>
	<path class="st2" d="M136.1,85.4c-7.3,0.1-14.5,0.3-22,0.4C114.7,85.2,130.5,85,136.1,85.4z"/>
	<path class="st1" d="M132.6,104.2c0.9-0.3,1.7-0.7,2.6-1c0.8-0.2,1-0.7,1-1.5c0-2.1,0-4.3,0-6.4c0-0.6,0.1-1.2,0.1-1.8
		c0.1,0,0.2,0,0.3,0c0,0.2,0.1,0.4,0.1,0.6c0,2.8-0.1,5.5-0.2,8.3c0,0.3-0.2,0.7-0.4,0.8c-1.1,0.5-2.3,0.9-3.4,1.4
		C132.7,104.4,132.7,104.3,132.6,104.2z"/>
	<path class="st2" d="M81.4,94.1c0,0.3,0.1,0.7,0.1,1c0,2.4,0,4.9,0,7.3c0,0.7,0.2,1.1,0.9,1.3c0.7,0.2,1.4,0.5,2.1,0.8
		c0.2,0.1,0.4,0.3,0.7,0.4c0,0.1-0.1,0.2-0.1,0.3c-1.2-0.5-2.4-1-3.5-1.5c-0.2-0.1-0.3-0.4-0.3-0.6c-0.1-2.9-0.1-5.7-0.2-8.6
		c0-0.1,0.1-0.3,0.1-0.4C81.3,94.1,81.3,94.1,81.4,94.1z"/>
	<path class="st2" d="M105.8,85.7c0.8-0.5,6.9-0.5,7.9,0C111,85.7,108.5,85.7,105.8,85.7z"/>
	<path class="st1" d="M123.7,104.4c0.8,0.3,1.7,0.6,2.5,0.9c1.1,0.5,2.2,0.5,3.3,0c0.8-0.4,1.7-0.6,2.5-0.9c0,0.1,0.1,0.3,0.1,0.4
		c-1.3,0.5-2.6,1.4-3.9,1.4c-1.6,0-3.1-0.9-4.7-1.4C123.6,104.7,123.6,104.6,123.7,104.4z"/>
	<path class="st2" d="M85.7,105c1,0.4,2,0.7,3,1.1c0.8,0.4,1.5,0.3,2.3,0c1-0.4,2.1-0.8,3.1-1.1c0,0.1,0.1,0.2,0.1,0.2
		c-0.4,0.2-0.8,0.3-1.2,0.5c-3.6,1.4-3.6,1.4-7-0.2c-0.2-0.1-0.3-0.2-0.4-0.3C85.6,105.2,85.7,105.1,85.7,105z"/>
	<path class="st2" d="M140.1,85.6c-0.5-0.1-1.1-0.2-1.7-0.4c0.7,0,1.2,0,1.8,0C140.1,85.4,140.1,85.5,140.1,85.6z"/>
	<path class="st2" d="M84.7,122.7c-0.6,1.7-1.2,3.3-1.7,5c-1.2,3.5-2.4,7-3.6,10.6c-0.2,0.6-0.4,1-1.1,0.7c-1.4-0.6-1.5-0.6-1.1-1.5
		c1.8-5,3.6-10,5.4-15.1c0.2-0.5,0.4-1,1-0.7C83.9,121.9,84.7,121.8,84.7,122.7z M78.6,138.5c0.1-0.1,0.2-0.3,0.3-0.5
		c0.3-0.7,0.5-1.5,0.8-2.2c1.5-4.2,2.9-8.5,4.4-12.7c0.2-0.7,0-0.9-0.6-1c-0.8-0.3-0.8,0.4-0.9,0.8c-1.8,4.8-3.5,9.6-5.3,14.5
		C77.1,138,77.7,138.6,78.6,138.5z"/>
	<path class="st2" d="M134.8,121c0.1,0.1,0.4,0.3,0.5,0.6c1.4,3.8,2.7,7.6,4.1,11.4c0.5,1.3,1,2.6,1.4,3.9c0.3,0.9,0.1,1-1.2,1.5
		c-0.7,0.2-0.8-0.2-1-0.7c-1.7-5-3.5-9.9-5.2-14.9C133,121.7,133.4,121.1,134.8,121z M134.7,121.4c-0.9,0-1.2,0.5-0.9,1.4
		c1.7,4.8,3.3,9.6,5,14.5c0.2,0.7,0.5,0.8,1.2,0.6c0.9-0.3,0.6-0.9,0.4-1.4c-0.8-2.2-1.6-4.3-2.4-6.4c-0.9-2.6-1.9-5.2-2.8-7.7
		C135,121.9,134.8,121.6,134.7,121.4z"/>
	<path class="st0" d="M111.4,96.2c-0.9,0.6-1.6,1.2-2.3,1.6c-0.7,0.4-1.4,0.2-1.9-0.4c-0.5-0.7-0.5-1.7,0.1-2.2
		c0.5-0.5,1.2-0.8,1.9-0.3c0.4,0.2,0.5,0.8,0.9,1C110.5,96.1,111,96.1,111.4,96.2z"/>
	<path class="st0" d="M112.2,141.9c-0.2,0.1-0.5,0.3-0.7,0.4c-0.5,0.2-1,0.3-1.4,0.6c-0.8,0.6-1.7,0.6-2.3-0.1
		c-0.6-0.7-0.5-1.7,0.2-2.2c0.7-0.6,1.6-0.4,2.3,0.3C110.8,141.3,111.4,141.5,112.2,141.9z"/>
	<path class="st0" d="M108.6,127.9c-1.1,0-1.8-0.6-1.9-1.3c-0.1-0.8,0.2-1.4,1-1.8c0.8-0.4,1.6-0.3,2,0.4c0.4,0.5,0.7,0.9,1.4,0.7
		c0.1,0,0.3,0.2,0.3,0.3c0,0.2-0.2,0.4-0.3,0.4c-0.7-0.1-1.1,0.3-1.5,0.8C109.3,127.6,108.8,127.8,108.6,127.9z M107.2,126.1
		c0.1,0.1,0.3,0.2,0.4,0.4c0.3-0.3,0.5-0.7,0.8-1c-0.1-0.1-0.2-0.2-0.3-0.3C107.8,125.5,107.5,125.8,107.2,126.1z"/>
	<path class="st0" d="M111.4,110.8c-0.7,0.4-1.5,0.9-2.3,1.3c-0.7,0.3-1.3,0.1-1.8-0.5c-0.5-0.6-0.5-1.2,0-1.8
		c0.5-0.6,1.2-0.9,2-0.5C110.1,109.7,110.8,110.3,111.4,110.8z"/>
	<path class="st0" d="M107,151.4c0.5-0.6,0.9-1.2,1.4-1.3c0.5-0.1,1.3,0,1.6,0.3c0.5,0.4,0.8,0.7,1.5,0.7c0.2,0,0.4,0.3,0.6,0.5
		c-0.2,0.2-0.4,0.4-0.6,0.5c-0.5,0.2-1.1,0.4-1.5,0.7c-0.6,0.4-1.2,0.5-1.7,0.1C107.8,152.5,107.5,152,107,151.4z"/>
	<path class="st0" d="M124.3,71.6c-1.3-0.9-2.4-1.6-3.6-2.4c0-0.1,0.1-0.1,0.1-0.2c1,0.7,2.1,1.4,3.3,2.2c1.9-5,3.7-9.8,5.6-14.7
		c0.1,0,0.2,0.1,0.3,0.1C128.1,61.5,126.2,66.5,124.3,71.6z"/>
	<path class="st0" d="M90,90.9c0,0,0.2,0,0.2,0.2c0.3,0.6,0.6,1.2,0.9,1.7c0.3,0.6,0,1.4-0.5,1.8c-0.6,0.4-1.4,0.2-1.8-0.4
		c-0.5-0.6-0.3-1.3,0.2-1.9C89.4,91.9,89.6,91.5,90,90.9z"/>
	<path class="st0" d="M127.8,90.2c0.4,0.6,0.7,1.1,1.1,1.6c0.4,0.6,0.4,1.2,0,1.8c-0.5,0.6-1.3,0.7-1.9,0.3c-0.6-0.5-0.7-1-0.4-1.7
		c0.3-0.6,0.6-1.2,0.9-1.8C127.7,90.3,127.8,90.2,127.8,90.2z"/>
	<path class="st0" d="M108.4,84.5c-0.4-0.4-1-0.8-1.2-1.3c-0.3-0.7,0.1-1.4,0.8-1.7c0.6-0.3,1.2-0.3,1.7,0.3
		c0.3,0.3,0.8,0.4,1.2,0.7c0.2,0.1,0.4,0.3,0.6,0.5c-0.2,0.1-0.4,0.3-0.6,0.4c-0.5,0.2-1,0.5-1.5,0.7
		C109.2,84.1,108.9,84.2,108.4,84.5z"/>
	<path class="st3" d="M78.6,138.5c-0.9,0-1.5-0.6-1.2-1.2c1.7-4.8,3.5-9.6,5.3-14.5c0.1-0.4,0.1-1.1,0.9-0.8c0.6,0.2,0.8,0.4,0.6,1
		c-1.5,4.2-2.9,8.5-4.4,12.7c-0.3,0.8-0.5,1.5-0.8,2.2C78.8,138.3,78.7,138.4,78.6,138.5z"/>
	<path class="st3" d="M134.7,121.4c0.1,0.2,0.3,0.5,0.5,0.8c1,2.6,1.9,5.2,2.8,7.7c0.8,2.1,1.6,4.3,2.4,6.4c0.2,0.5,0.5,1.1-0.4,1.4
		c-0.7,0.3-0.9,0.1-1.2-0.6c-1.6-4.8-3.3-9.6-5-14.5C133.5,121.9,133.7,121.4,134.7,121.4z"/>
	<path class="st0" d="M107.2,126.1c0.3-0.3,0.6-0.6,0.9-0.9c0.1,0.1,0.2,0.2,0.3,0.3c-0.3,0.3-0.5,0.7-0.8,1
		C107.5,126.3,107.4,126.2,107.2,126.1z"/>
</g>
</svg>
