<?xml version="1.0" encoding="utf-8"?>
<!-- Generator: Adobe Illustrator 24.1.1, SVG Export Plug-In . SVG Version: 6.00 Build 0)  -->
<svg version="1.1" id="Capa_1" xmlns="http://www.w3.org/2000/svg" xmlns:xlink="http://www.w3.org/1999/xlink" x="0px" y="0px"
	 viewBox="0 0 229 228" style="enable-background:new 0 0 229 228;" xml:space="preserve">
<style type="text/css">
	.st0{fill:#FFFFFF;}
	.st1{fill:#FFFFFF;stroke:#27B2AC;stroke-width:2;stroke-miterlimit:10;}
	.st2{fill:#FFFFFF;stroke:#27B2AC;stroke-width:3;stroke-miterlimit:10;}
	.st3{fill:#FFFFFF;stroke:#27B2AC;stroke-width:5;stroke-miterlimit:10;}
	.st4{fill:#27B2AC;}
	.st5{fill:#FFFFFF;stroke:#00A99D;stroke-width:2;stroke-miterlimit:10;}
	.st6{fill:#FFFFFF;stroke:#FFFFFF;stroke-width:3;stroke-miterlimit:10;}
</style>
<circle class="st0" cx="114.9" cy="114.8" r="112.6"/>
<g>
	<path class="st1" d="M18.2,68.2c33.3-4.4,66.5-8.8,100-13.3c0.1,0.9,0.2,1.6,0.3,2.3c2.8,21,5.7,42,8.3,63
		c2.2,17.2-0.9,33.4-11.4,47.6c-8.8,11.9-20.7,18.9-35.8,19.1c-13.9,0.2-25.5-5.6-35-15.4c-9.5-9.7-15.4-21.5-17.3-34.9
		c-3.2-22.2-6-44.6-9-66.8C18.2,69.3,18.2,68.8,18.2,68.2z"/>
	<path class="st2" d="M25.8,126.5c0,0,6.4-2.5,8.9-17C37.1,95.1,29,85.3,29,85.3S32.1,90,39.2,88c0,0,4.9-0.8,6.8-5.1
		c0,0,1.6,3.9,7.4,2.3s6.1-5.2,6.1-5.2s0.9,2.6,3.7,3.6c2.8,1,7.8-0.8,8.9-2.5l1.2-2.9c0,0,2.6,3.2,6.9,2.6c4.3-0.6,9.4-4.8,9.4-4.8
		s2.6,5.6,6.8,4.3c4.2-1.4,6.5-6,6.5-6s0.4,2.9,3.3,2.3c2.9-0.7,4.4-1.9,4.4-1.9s-4.1,32.8,15.7,41.2"/>
	<polygon class="st2" points="48.7,158.3 73.3,140.9 83.8,138.8 109.7,150.4 83.9,146.2 75.1,147.6 	"/>
	<path class="st1" d="M59.7,153.9c0,0,4.8-0.8,12.5,0c7.7,0.8,12.9-0.7,12.9-0.7l12.4-4.5"/>
	<path class="st1" d="M38.8,118.3c0,0,16.2,11.9,31.7-4C70.5,114.3,54.7,106.2,38.8,118.3z"/>
	<path class="st1" d="M81.8,112.9c0,0,16.2,11.9,31.7-4C113.5,108.9,97.7,100.7,81.8,112.9z"/>
	<circle class="st2" cx="54.7" cy="117.2" r="4.6"/>
	<circle class="st1" cx="97" cy="111.8" r="4.6"/>
	<path class="st1" d="M81.3,109.4c0,0-2.4,10.9-0.6,14.2s7.9,12.5,7.9,12.5s-5.3,2.5-8,3.1c-2.7,0.5-2.2,0.2-2.2,0.2l-7.7-0.9
		l4.4-13.9l-5.1-13.7"/>
	<path class="st3" d="M38.1,112.3c0,0,15.5-8.3,29.2-5"/>
	<path class="st3" d="M79.7,106.8c0,0,15.5-8.3,29.2-5"/>
	<path class="st4" d="M123.1,75.7c0,0,13.7-5.4,18.9-5.5l-16.3-26.9C125.7,43.2,107.8,55.2,123.1,75.7z"/>
	<path class="st4" d="M196.6,96.4c0,0-9.3-11.4-13.8-14.1l27.4-15.6C210.1,66.8,219.9,86,196.6,96.4z"/>
	<path class="st4" d="M153.7,108c0,0-7.6-32.5-1.2-38.3c6.4-5.8,14.4-2.8,14.4-2.8s5.3,2.7,7,7.9s0,8.8-2.7,12.7
		C168.6,91.3,153.7,108,153.7,108z"/>
	<path class="st4" d="M117,151.7l44.4,12.3l30-58.3c0,0,3.7-7.4-13.1-21.2c0,0,0.4,1.2-1.4,4.1c-1.8,2.9-26.3,32.1-26.3,32.1
		L143.9,79c0,0,0.3-2.5,1.1-4.1l-1.5,0.2c0,0-14.8,2.7-19.2,7.3c0,0-2.4,2.1-2.9,10.6S117,151.7,117,151.7z"/>
	<path class="st4" d="M116.4,157l42.5,11.8c0,0-6.6,19.6-14.3,20.6c-7.7,1.1-23.7-3.4-26.2-6.5c0,0-3.9-4.1-3.6-8.6
		C115.1,169.8,116.4,157,116.4,157z"/>
	
		<ellipse transform="matrix(0.2676 -0.9635 0.9635 0.2676 -66.614 266.6037)" class="st0" cx="142.1" cy="177.1" rx="5.4" ry="2.9"/>
	
		<ellipse transform="matrix(0.2676 -0.9635 0.9635 0.2676 -73.3486 249.6952)" class="st0" cx="127.6" cy="173.1" rx="5.4" ry="2.9"/>
	<path class="st0" d="M153.1,137.8c0,0,2.5-21.7,26.6-22.3C179.7,115.4,174.5,134,153.1,137.8z"/>
	<path class="st0" d="M128.2,100.9c0,0-9.7,19.5,10.2,33.2C138.4,134,144.2,115.6,128.2,100.9z"/>
	<circle class="st5" cx="132.3" cy="117.2" r="5.3"/>
	<circle class="st5" cx="165.4" cy="126.4" r="5.3"/>
	<circle class="st4" cx="132.2" cy="117.1" r="1.3"/>
	<circle class="st4" cx="165.4" cy="126.5" r="1.3"/>
	<polyline class="st6" points="156.8,137.7 158.3,140.6 159.2,142.4 	"/>
	<polyline class="st6" points="163.8,135.6 165.3,138.6 166.2,140.3 	"/>
	<polyline class="st6" points="168.7,132.7 170.6,135.4 171.9,137 	"/>
	<polyline class="st6" points="173.3,128.4 175.2,131 176.4,132.7 	"/>
	<polyline class="st6" points="176.8,123.7 179.1,124.7 180.5,125.2 	"/>
	<polyline class="st6" points="123.7,114.4 121.8,115.1 120.7,115.5 	"/>
	<polyline class="st6" points="125.2,120.6 122.1,121.7 120.3,122.4 	"/>
	<polyline class="st6" points="127.6,125.7 124.7,127.4 123,128.4 	"/>
	<polyline class="st6" points="131.4,130.8 128.6,132.4 126.8,133.4 	"/>
	<polyline class="st6" points="135.7,134.7 134.5,136.9 133.8,138.2 	"/>
</g>
</svg>
