<?xml version="1.0" encoding="utf-8"?>
<!-- Generator: Adobe Illustrator 24.1.1, SVG Export Plug-In . SVG Version: 6.00 Build 0)  -->
<svg version="1.1" id="Capa_1" xmlns="http://www.w3.org/2000/svg" xmlns:xlink="http://www.w3.org/1999/xlink" x="0px" y="0px"
	 viewBox="0 0 229 228" style="enable-background:new 0 0 229 228;" xml:space="preserve">
<style type="text/css">
	.st0{fill:#FFFFFF;}
	.st1{fill:#27B2AC;}
</style>
<circle class="st0" cx="114.9" cy="114.8" r="112.6"/>
<g>
	<path class="st1" d="M163.6,68.8c-0.4,1.4-1,2.9-1.1,4.3c-2.5,31.2-5.1,62.4-7.3,93.6c-0.3,4.9-2,7.1-6.7,7.7
		c-4.3,0.6-8.5,1.7-12.8,2.3c-3.4,0.5-7.7,2.6-8.6-3.5c-0.1-0.6-1.6-1.4-2.4-1.5c-6.2-0.1-12.4-0.1-18.7,0c-0.9,0-2.5,0.7-2.6,1.2
		c-1.2,6.8-6,4.1-9.7,3.6c-4.5-0.6-8.9-1.8-13.4-2.5c-3.4-0.6-4.8-2.3-5-5.8c-2.3-31.2-4.8-62.4-7.3-93.6c-0.2-2-0.8-3.9-1.2-5.9
		c-0.7,0.1-1.4,0.1-2.1,0.2c-0.1,2-0.5,4.1-0.4,6.1c1.8,24,3.4,48,5.9,71.9c1.2,11.5-2.4,21.7-6,32c-0.5,1.5-3.3,3-5.2,3.1
		c-4.9,0.4-9.9,0.2-14.9,0.1c-7.2-0.1-8.5-1.5-7-8.5c3.9-18.9,7.7-37.8,11.7-56.6c3.7-17.2,7.8-34.3,11.6-51.5
		C61.6,60,64.7,56,69.5,53c7.5-4.7,14.7-9.8,22.2-14.4c1.5-1,4-0.7,6-0.7c11.6,0,23.2-0.2,34.7,0.2c3.1,0.1,6.4,1.8,9.2,3.3
		c4.9,2.6,9.3,6.1,14.2,8.6c8.4,4.1,13.4,10.2,15.3,19.6c7.2,34.9,14.8,69.7,22.2,104.5c1.4,6.7,0,8.1-6.8,8.2
		c-4.8,0-9.6-0.2-14.3,0.1c-4.1,0.2-5.9-1.7-7.1-5.3c-3.9-11.5-5.8-22.9-4.4-35.3c2.5-21.8,3.6-43.8,5.3-65.7c0.2-2.3,0-4.6,0-6.9
		C165.3,69,164.4,68.9,163.6,68.8z M101.3,42.7c9.3,11,11.7,22.7,10.4,35.8c-2.1,20.6-3.7,41.3-5.5,61.9c-0.5,5.5-0.9,10.9-1.4,16.4
		c7.4,0,14,0,20.9,0c-1.7-18.8-3.7-37.2-4.9-55.6c-1-15.3-5.8-30.8,0.5-46c1.8-4.4,4.5-8.3,6.8-12.6
		C119.5,42.7,110.9,42.7,101.3,42.7z M150.9,160.2c-6.8,1.1-13.6,2.1-20.9,3.3c0.5,3.7,1,6.8,1.5,10.3c4.6-0.9,8.4-1.6,12.2-2.3
		C152.3,169.7,152.3,169.7,150.9,160.2z M99.3,173.7c0.4-4,0.7-7,1-10.4c-7.4-1.1-14.1-2.1-23.1-3.4c2,4.6,2.5,9.4,4.7,10.3
		C87,172.3,92.9,172.6,99.3,173.7z M40.8,178.5c4.5,0,9.1-0.4,13.5,0.1c5.9,0.6,8.4-1.6,8-8c-5,0-10,0.3-14.9-0.1
		C41.5,170,40,172.8,40.8,178.5z M166,170.6c2.5,3.5,3.8,7.3,5.6,7.5c6,0.8,12.1,0.3,18.1,0.3c0.8-6.5-1.7-8.3-7.1-7.9
		C177.9,170.9,173.1,170.6,166,170.6z M126.2,161.3c-7.7,0-14.7,0-21.9,0c0,2.3,0,4.2,0,6.3c7.5,0,14.6,0,21.9,0
		C126.2,165.4,126.2,163.6,126.2,161.3z M97.2,65.4c-5.9-4.9-6.3-12.9-12.9-15.8c1.6,5.2,4,9.9,6.5,14.5c1.9,3.4,4.4,5.6,8.6,3.8
		c4-1.7,6.6-7.4,5.3-11.4C102.2,59.3,99.9,62.1,97.2,65.4z M125.6,56.1c-2.9,5.4,1.7,7.9,4.1,10.5c1.1,1.3,5.4,1.7,6.5,0.7
		c5.3-4.8,8.1-11.2,10.4-17.7c-0.7-0.5-1.5-0.9-2.2-1.4c-3.4,5.6-6.8,11.2-10.7,17.7C130.5,62.1,128.2,59.3,125.6,56.1z"/>
	<path class="st0" d="M101.3,42.7c9.5,0,18.2,0,26.9,0c-2.3,4.2-5,8.2-6.8,12.6c-6.3,15.2-1.6,30.7-0.5,46
		c1.2,18.4,3.2,36.7,4.9,55.6c-7,0-13.5,0-20.9,0c0.5-5.5,0.9-10.9,1.4-16.4c1.8-20.7,3.4-41.3,5.5-61.9
		C113.1,65.4,110.6,53.7,101.3,42.7z"/>
	<path class="st0" d="M150.9,160.2c1.4,9.5,1.4,9.5-7.2,11.3c-3.8,0.8-7.6,1.5-12.2,2.3c-0.5-3.5-1-6.6-1.5-10.3
		C137.3,162.3,144.1,161.2,150.9,160.2z"/>
	<path class="st0" d="M99.3,173.7c-6.4-1.2-12.3-1.4-17.5-3.5c-2.2-0.9-2.7-5.7-4.7-10.3c9,1.3,15.7,2.3,23.1,3.4
		C99.9,166.7,99.6,169.7,99.3,173.7z"/>
	<path class="st0" d="M40.8,178.5c-0.7-5.7,0.7-8.5,6.6-8c4.9,0.4,9.9,0.1,14.9,0.1c0.4,6.3-2.1,8.6-8,8
		C49.8,178.1,45.3,178.5,40.8,178.5z"/>
	<path class="st0" d="M166,170.6c7.2,0,11.9,0.3,16.6-0.1c5.3-0.4,7.8,1.4,7.1,7.9c-5.9,0-12.1,0.5-18.1-0.3
		C169.8,177.9,168.5,174.2,166,170.6z"/>
	<path class="st0" d="M126.2,161.3c0,2.3,0,4.1,0,6.3c-7.3,0-14.4,0-21.9,0c0-2,0-4,0-6.3C111.6,161.3,118.5,161.3,126.2,161.3z"/>
	<path class="st0" d="M97.2,65.4c2.7-3.3,5-6.1,7.4-9c1.4,4-1.3,9.7-5.3,11.4c-4.1,1.7-6.7-0.4-8.6-3.8c-2.5-4.6-4.9-9.2-6.5-14.5
		C90.9,52.5,91.3,60.5,97.2,65.4z"/>
	<path class="st0" d="M125.6,56.1c2.6,3.1,4.9,5.9,8.1,9.8c3.9-6.4,7.3-12,10.7-17.7c0.7,0.5,1.5,0.9,2.2,1.4
		c-2.3,6.5-5.1,12.9-10.4,17.7c-1.2,1-5.4,0.6-6.5-0.7C127.3,64,122.7,61.6,125.6,56.1z"/>
	<path class="st0" d="M87,136.6c2.4,6.1,4.6,11.5,6.9,17.4C91.3,152.5,86.4,140.3,87,136.6z"/>
	<path class="st0" d="M132.4,153.4c3.2-5.8,6-10.9,9-16.4C142,139.9,135.7,151.5,132.4,153.4z"/>
	<g>
		<path class="st0" d="M101.1,93.6c0,3.4,0,6.9,0,10.3c0,3.9-2.7,6.5-6.6,6.6c-3.9,0-7.7,0-11.6,0c-3.7,0-6.5-2.6-6.5-6.3
			c-0.1-7.1,0-14.3,0-21.4c0-2.1,1.2-3.2,3.2-3.2c6.1,0,12.1,0,18.2,0c2.2,0,3.3,1.1,3.3,3.3C101.1,86.4,101.1,90,101.1,93.6z
			 M78.5,91.1C78.6,90.8,78.5,90.9,78.5,91.1c0,4.2,0,8.5,0,12.8c0,2.8,1.6,4.5,4.5,4.5c3.8,0,7.6,0,11.4,0c3,0,4.7-1.7,4.7-4.7
			c0-4,0-7.9,0-11.9c0-0.4-0.1-0.8-0.1-0.7C92.1,92.3,85.4,92.2,78.5,91.1z M88.9,81.5c-2.3,0-4.6,0-6.9,0c-3.8,0-3.5-0.2-3.5,3.6
			c0,3.1,1.6,4.7,4.8,4.7c3.6,0,7.2,0,10.8,0c3.5,0,5.1-1.6,5.1-5.1c0-0.5,0-1,0-1.4c0.1-1.3-0.5-1.8-1.8-1.8
			C94.5,81.6,91.7,81.5,88.9,81.5z"/>
		<path class="st0" d="M88.8,88c-0.4-0.5-1-0.9-0.9-1.2c0.1-0.4,0.6-0.7,0.9-1.1c0.3,0.3,0.8,0.6,0.9,1C89.7,87,89.2,87.5,88.8,88z"
			/>
	</g>
	<g>
		<path class="st0" d="M153.6,93.6c0,3.4,0,6.9,0,10.3c0,3.9-2.7,6.5-6.6,6.6c-3.9,0-7.7,0-11.6,0c-3.7,0-6.5-2.6-6.5-6.3
			c-0.1-7.1,0-14.3,0-21.4c0-2.1,1.2-3.2,3.2-3.2c6.1,0,12.1,0,18.2,0c2.2,0,3.3,1.1,3.3,3.3C153.6,86.4,153.6,90,153.6,93.6z
			 M130.9,91.1C131,90.8,131,90.9,130.9,91.1c0,4.2,0,8.5,0,12.8c0,2.8,1.6,4.5,4.5,4.5c3.8,0,7.6,0,11.4,0c3,0,4.7-1.7,4.7-4.7
			c0-4,0-7.9,0-11.9c0-0.4-0.1-0.8-0.1-0.7C144.6,92.3,137.9,92.2,130.9,91.1z M141.4,81.5c-2.3,0-4.6,0-6.9,0
			c-3.8,0-3.5-0.2-3.5,3.6c0,3.1,1.6,4.7,4.8,4.7c3.6,0,7.2,0,10.8,0c3.5,0,5.1-1.6,5.1-5.1c0-0.5,0-1,0-1.4
			c0.1-1.3-0.5-1.8-1.8-1.8C146.9,81.6,144.2,81.5,141.4,81.5z"/>
		<path class="st0" d="M141.2,88c-0.4-0.5-1-0.9-0.9-1.2c0.1-0.4,0.6-0.7,0.9-1.1c0.3,0.3,0.8,0.6,0.9,1
			C142.2,87,141.6,87.5,141.2,88z"/>
	</g>
	<path class="st0" d="M169.2,166.7c-0.4-0.5-1-0.9-0.9-1.2c0.1-0.4,0.6-0.7,0.9-1.1c0.3,0.3,0.8,0.6,0.9,1
		C170.1,165.7,169.6,166.1,169.2,166.7z"/>
	<path class="st0" d="M58.7,165.4c-0.4-0.5-1-0.9-0.9-1.2c0.1-0.4,0.6-0.7,0.9-1.1c0.3,0.3,0.8,0.6,0.9,1
		C59.6,164.4,59.1,164.9,58.7,165.4z"/>
</g>
</svg>
