<?xml version="1.0" encoding="utf-8"?>
<!-- Generator: Adobe Illustrator 24.1.1, SVG Export Plug-In . SVG Version: 6.00 Build 0)  -->
<svg version="1.1" id="Capa_1" xmlns="http://www.w3.org/2000/svg" xmlns:xlink="http://www.w3.org/1999/xlink" x="0px" y="0px"
	 viewBox="0 0 229 228" style="enable-background:new 0 0 229 228;" xml:space="preserve">
<style type="text/css">
	.st0{fill:#FFFFFF;}
	.st1{fill:#27B2AC;}
	.st2{fill:none;stroke:#FFFFFF;stroke-miterlimit:10;}
</style>
<circle class="st0" cx="114.9" cy="114.8" r="112.6"/>
<g>
	<path class="st1" d="M117.9,91.8c-1.1,8-2.2,16-3.3,24c-2.6,18.9-5.2,37.8-7.8,56.7c-1.3,9.5-2.6,18.9-3.8,28.4
		c-0.3,2.1-1.1,2.6-3.1,2.6c-8.8-0.1-17.6,0-26.3,0c-2.9,0-3-0.1-2.9-2.9c0.8-19.6,1.6-39.1,2.4-58.7c1.3-31.5,2.6-63.1,3.9-94.6
		c0.2-4.3,0.5-8.6,0.6-12.9c0.1-1.7,0.7-2.3,2.4-2.3c25,0,50,0,75,0c1.9,0,2.4,0.8,2.5,2.5c0.6,14.3,1.2,28.7,1.7,43
		c1,23.5,2,47.1,2.9,70.6c0.7,16.7,1.5,33.4,2,50.1c0.2,6.2,0.8,5.2-5.1,5.3c-8.1,0-16.2,0-24.2,0c-1.8,0-2.6-0.5-2.9-2.4
		c-2.7-22-5.5-44-8.3-65.9c-1.7-13.8-3.4-27.7-5.2-41.5c-0.1-0.6-0.2-1.2-0.3-1.8C118.2,91.8,118.1,91.8,117.9,91.8z M111.3,34.7
		c0,0.9,0,1.5,0,2.1c0,9.7-0.1,19.4,0.1,29c0.1,2.9,0.6,6.2,2,8.6c2.5,4.2,4.6,8.4,4.7,13.5c0.7-2.8,1.1-5.6,1.4-8.4
		c0.1-0.6-0.5-1.2-0.9-1.8c-3.1-3.8-4.7-8-4.6-13c0.2-9.2,0-18.4,0-27.6c0-0.7,0-1.5,0-2.3C113,34.7,112.3,34.7,111.3,34.7z
		 M155.5,61c0.2-0.1,0.3-0.1,0.5-0.2c-0.2-1.4,0.1-3.1-0.6-4.1c-2-3.1-4.3-5.9-6.7-8.8c-0.3-0.4-1.2-0.2-1.8-0.3
		c-0.1,0.6-0.4,1.4-0.1,1.8c0.5,1,1.3,1.8,1.9,2.7C150.9,55.1,153.2,58.1,155.5,61z M79.5,61.3c3.1-4.1,6-7.9,8.8-11.7
		c0.3-0.4,0-1.3,0-2c-0.7,0.2-1.7,0.2-2.1,0.6c-1.7,2.1-3.2,4.4-5,6.4C79.4,56.4,79.1,58.4,79.5,61.3z M94.6,34.8c0,2.8,0,5.4,0,8.1
		c1.9,0.5,2.9,0.2,2.7-2c-0.1-1.4-0.1-2.8,0-4.1C97.5,34.7,96.5,34.2,94.6,34.8z M140.6,34.8c-1,0-1.8,0-2.5,0c0,2.8,0,5.5,0,8.2
		c0.9,0,1.6,0,2.5,0C140.6,40.2,140.6,37.6,140.6,34.8z"/>
	<path class="st0" d="M111.3,34.7c1,0,1.8,0,2.7,0c0,0.9,0,1.6,0,2.3c0,9.2,0.1,18.4,0,27.6c-0.1,5,1.5,9.3,4.6,13
		c0.4,0.5,1,1.2,0.9,1.8c-0.3,2.8-0.7,5.6-1.4,8.4c-0.1-5.1-2.2-9.2-4.7-13.5c-1.4-2.4-2-5.7-2-8.6c-0.2-9.7-0.1-19.4-0.1-29
		C111.3,36.2,111.3,35.6,111.3,34.7z"/>
	<path class="st0" d="M155.5,61c-2.3-2.9-4.5-5.9-6.8-8.8c-0.7-0.9-1.4-1.7-1.9-2.7c-0.2-0.5,0.1-1.2,0.1-1.8
		c0.6,0.1,1.5-0.1,1.8,0.3c2.3,2.9,4.7,5.7,6.7,8.8c0.7,1.1,0.4,2.7,0.6,4.1C155.8,60.9,155.6,60.9,155.5,61z"/>
	<path class="st0" d="M79.5,61.3c-0.4-2.8,0-4.9,1.6-6.7c1.8-2,3.3-4.3,5-6.4c0.4-0.5,1.4-0.4,2.1-0.6c0,0.7,0.4,1.6,0,2
		C85.5,53.4,82.6,57.1,79.5,61.3z"/>
	<path class="st0" d="M94.6,34.8c2-0.6,2.9-0.2,2.7,2c-0.1,1.4-0.1,2.8,0,4.1c0.2,2.2-0.8,2.5-2.7,2C94.6,40.2,94.6,37.6,94.6,34.8z
		"/>
	<path class="st1" d="M140.6,34.8c0,2.8,0,5.4,0,8.2c-0.9,0-1.6,0-2.5,0c0-2.7,0-5.3,0-8.2C138.8,34.8,139.6,34.8,140.6,34.8z"/>
	<path class="st0" d="M151.3,34.8c0,2.8,0,5.4,0,8.2c-0.9,0-1.6,0-2.5,0c0-2.7,0-5.3,0-8.2C149.5,34.8,150.3,34.8,151.3,34.8z"/>
	<path class="st1" d="M121.8,40.3c-1.2,0.6-1.8,1.2-2.3,1.2c-0.4,0-1.2-0.8-1.2-1.2c0-0.4,0.8-1.2,1.2-1.2
		C120.1,39,120.7,39.6,121.8,40.3z"/>
	<path class="st0" d="M139.1,36.7c0,0.7-0.5,1.3-1.2,1.3c-0.7,0-1.3-0.6-1.3-1.3c0-0.7,0.6-1.3,1.3-1.3
		C138.5,35.4,139.1,36,139.1,36.7z M138.5,36.7c-0.4-0.2-0.5-0.4-0.7-0.4c-0.1,0-0.4,0.2-0.4,0.4c0,0.1,0.2,0.4,0.4,0.4
		C138,37.1,138.1,36.9,138.5,36.7z"/>
	<path class="st0" d="M139,40.2c0,0.7-0.5,1.2-1.2,1.3c-0.7,0-1.3-0.6-1.3-1.3c0-0.7,0.6-1.2,1.3-1.2C138.5,39,139,39.5,139,40.2z
		 M138.4,40.2c-0.3-0.2-0.5-0.4-0.7-0.4c-0.1,0-0.4,0.2-0.4,0.4c0,0.1,0.2,0.4,0.3,0.4C137.9,40.6,138.1,40.4,138.4,40.2z"/>
	<path class="st2" d="M116.3,34.9l25-0.4c0,0,1.4,0.4,1.4,2.1s0,5.4,0,5.4s0,0.7-1.1,0.7s-25,0.4-25,0.4"/>
</g>
</svg>
